  0
SECTION
  2
HEADER
  9
$ACADVER
  1
AC1015
  9
$ACADMAINTVER
 70
     6
  9
$DWGCODEPAGE
  3
ANSI_1252
  9
$INSBASE
 10
0.0
 20
0.0
 30
0.0
  9
$EXTMIN
 10
0.0
 20
0.0
 30
0.0
  9
$EXTMAX
 10
43.18
 20
27.94
 30
0.0
  9
$LIMMIN
 10
0.0
 20
0.0
  9
$LIMMAX
 10
43.18
 20
27.94
  9
$ORTHOMODE
 70
     0
  9
$REGENMODE
 70
     1
  9
$FILLMODE
 70
     1
  9
$QTEXTMODE
 70
     0
  9
$MIRRTEXT
 70
     1
  9
$LTSCALE
 40
1.0
  9
$ATTMODE
 70
     1
  9
$TEXTSIZE
 40
0.3175
  9
$TRACEWID
 40
1.0
  9
$TEXTSTYLE
  7
Standard
  9
$CLAYER
  8
0
  9
$CELTYPE
  6
ByLayer
  9
$CECOLOR
 62
   256
  9
$CELTSCALE
 40
1.0
  9
$DISPSILH
 70
     0
  9
$DIMSCALE
 40
1.0
  9
$DIMASZ
 40
0.3302
  9
$DIMEXO
 40
0.127
  9
$DIMDLI
 40
3.75
  9
$DIMRND
 40
0.0
  9
$DIMDLE
 40
0.0
  9
$DIMEXE
 40
0.3175
  9
$DIMTP
 40
0.0
  9
$DIMTM
 40
0.0
  9
$DIMTXT
 40
0.3175
  9
$DIMCEN
 40
2.5
  9
$DIMTSZ
 40
0.0
  9
$DIMTOL
 70
     0
  9
$DIMLIM
 70
     0
  9
$DIMTIH
 70
     1
  9
$DIMTOH
 70
     1
  9
$DIMSE1
 70
     0
  9
$DIMSE2
 70
     0
  9
$DIMTAD
 70
     0
  9
$DIMZIN
 70
     0
  9
$DIMBLK
  1

  9
$DIMASO
 70
     1
  9
$DIMSHO
 70
     1
  9
$DIMPOST
  1

  9
$DIMAPOST
  1

  9
$DIMALT
 70
     0
  9
$DIMALTD
 70
     3
  9
$DIMALTF
 40
0.3937007874
  9
$DIMLFAC
 40
0.5
  9
$DIMTOFL
 70
     1
  9
$DIMTVP
 40
0.0
  9
$DIMTIX
 70
     0
  9
$DIMSOXD
 70
     0
  9
$DIMSAH
 70
     0
  9
$DIMBLK1
  1

  9
$DIMBLK2
  1

  9
$DIMSTYLE
  2
ISO-25
  9
$DIMCLRD
 70
     0
  9
$DIMCLRE
 70
     0
  9
$DIMCLRT
 70
     0
  9
$DIMTFAC
 40
1.0
  9
$DIMGAP
 40
0.1524
  9
$DIMJUST
 70
     0
  9
$DIMSD1
 70
     0
  9
$DIMSD2
 70
     0
  9
$DIMTOLJ
 70
     0
  9
$DIMTZIN
 70
     0
  9
$DIMALTZ
 70
     0
  9
$DIMALTTZ
 70
     0
  9
$DIMUPT
 70
     0
  9
$DIMDEC
 70
     3
  9
$DIMTDEC
 70
     3
  9
$DIMALTU
 70
     2
  9
$DIMALTTD
 70
     3
  9
$DIMTXSTY
  7
Standard
  9
$DIMAUNIT
 70
     0
  9
$DIMADEC
 70
     2
  9
$DIMALTRND
 40
0.0
  9
$DIMAZIN
 70
     0
  9
$DIMDSEP
 70
    44
  9
$DIMATFIT
 70
     3
  9
$DIMFRAC
 70
     0
  9
$DIMLDRBLK
  1

  9
$DIMLUNIT
 70
     2
  9
$DIMLWD
 70
    -2
  9
$DIMLWE
 70
    -2
  9
$DIMTMOVE
 70
     0
  9
$LUNITS
 70
     2
  9
$LUPREC
 70
     2
  9
$SKETCHINC
 40
1.0
  9
$FILLETRAD
 40
10.0
  9
$AUNITS
 70
     0
  9
$AUPREC
 70
     2
  9
$MENU
  1
.
  9
$ELEVATION
 40
0.0
  9
$PELEVATION
 40
0.0
  9
$THICKNESS
 40
0.0
  9
$LIMCHECK
 70
     0
  9
$CHAMFERA
 40
10.0
  9
$CHAMFERB
 40
10.0
  9
$CHAMFERC
 40
20.0
  9
$CHAMFERD
 40
0.0
  9
$SKPOLY
 70
     0
  9
$TDCREATE
 40
2456071.562682743
  9
$TDUCREATE
 40
2456071.72934941
  9
$TDUPDATE
 40
2456071.562682755
  9
$TDUUPDATE
 40
2456071.729349421
  9
$TDINDWG
 40
0.0000000116
  9
$TDUSRTIMER
 40
0.0000000116
  9
$USRTIMER
 70
     1
  9
$ANGBASE
 50
0.0
  9
$ANGDIR
 70
     0
  9
$PDMODE
 70
     0
  9
$PDSIZE
 40
-1.0
  9
$PLINEWID
 40
0.0
  9
$SPLFRAME
 70
     0
  9
$SPLINETYPE
 70
     6
  9
$SPLINESEGS
 70
     8
  9
$HANDSEED
  5
167
  9
$SURFTAB1
 70
     6
  9
$SURFTAB2
 70
     6
  9
$SURFTYPE
 70
     6
  9
$SURFU
 70
     6
  9
$SURFV
 70
     6
  9
$UCSBASE
  2

  9
$UCSNAME
  2

  9
$UCSORG
 10
0.0
 20
0.0
 30
0.0
  9
$UCSXDIR
 10
1.0
 20
0.0
 30
0.0
  9
$UCSYDIR
 10
0.0
 20
1.0
 30
0.0
  9
$UCSORTHOREF
  2

  9
$UCSORTHOVIEW
 70
     0
  9
$UCSORGTOP
 10
0.0
 20
0.0
 30
0.0
  9
$UCSORGBOTTOM
 10
0.0
 20
0.0
 30
0.0
  9
$UCSORGLEFT
 10
0.0
 20
0.0
 30
0.0
  9
$UCSORGRIGHT
 10
0.0
 20
0.0
 30
0.0
  9
$UCSORGFRONT
 10
0.0
 20
0.0
 30
0.0
  9
$UCSORGBACK
 10
0.0
 20
0.0
 30
0.0
  9
$PUCSBASE
  2

  9
$PUCSNAME
  2

  9
$PUCSORG
 10
0.0
 20
0.0
 30
0.0
  9
$PUCSXDIR
 10
1.0
 20
0.0
 30
0.0
  9
$PUCSYDIR
 10
0.0
 20
1.0
 30
0.0
  9
$PUCSORTHOREF
  2

  9
$PUCSORTHOVIEW
 70
     0
  9
$PUCSORGTOP
 10
0.0
 20
0.0
 30
0.0
  9
$PUCSORGBOTTOM
 10
0.0
 20
0.0
 30
0.0
  9
$PUCSORGLEFT
 10
0.0
 20
0.0
 30
0.0
  9
$PUCSORGRIGHT
 10
0.0
 20
0.0
 30
0.0
  9
$PUCSORGFRONT
 10
0.0
 20
0.0
 30
0.0
  9
$PUCSORGBACK
 10
0.0
 20
0.0
 30
0.0
  9
$USERI1
 70
     0
  9
$USERI2
 70
     0
  9
$USERI3
 70
     0
  9
$USERI4
 70
     0
  9
$USERI5
 70
     0
  9
$USERR1
 40
0.0
  9
$USERR2
 40
0.0
  9
$USERR3
 40
0.0
  9
$USERR4
 40
0.0
  9
$USERR5
 40
0.0
  9
$WORLDVIEW
 70
     1
  9
$SHADEDGE
 70
     3
  9
$SHADEDIF
 70
    70
  9
$TILEMODE
 70
     1
  9
$MAXACTVP
 70
    64
  9
$PINSBASE
 10
0.0
 20
0.0
 30
0.0
  9
$PLIMCHECK
 70
     0
  9
$PEXTMIN
 10
1.0000000000E+20
 20
1.0000000000E+20
 30
1.0000000000E+20
  9
$PEXTMAX
 10
-1.0000000000E+20
 20
-1.0000000000E+20
 30
-1.0000000000E+20
  9
$PLIMMIN
 10
0.0
 20
0.0
  9
$PLIMMAX
 10
420.0
 20
297.0
  9
$UNITMODE
 70
     0
  9
$VISRETAIN
 70
     1
  9
$PLINEGEN
 70
     0
  9
$PSLTSCALE
 70
     1
  9
$TREEDEPTH
 70
  3020
  9
$CMLSTYLE
  2
Standard
  9
$CMLJUST
 70
     0
  9
$CMLSCALE
 40
20.0
  9
$PROXYGRAPHICS
 70
     1
  9
$MEASUREMENT
 70
     1
  9
$CELWEIGHT
370
    -1
  9
$ENDCAPS
280
     0
  9
$JOINSTYLE
280
     0
  9
$LWDISPLAY
290
     1
  9
$INSUNITS
 70
     4
  9
$HYPERLINKBASE
  1

  9
$STYLESHEET
  1

  9
$XEDIT
290
     1
  9
$CEPSNTYPE
380
     0
  9
$PSTYLEMODE
290
     1
  9
$FINGERPRINTGUID
  2
{0A847408-84EE-4509-A8A2-BC41D60CC558}
  9
$VERSIONGUID
  2
{FAEB1C32-E019-11D5-929B-00C0DF256EC4}
  9
$EXTNAMES
290
     1
  9
$PSVPSCALE
 40
0.0
  9
$OLESTARTUP
290
     0
  0
ENDSEC
  0
SECTION
  2
CLASSES
  0
CLASS
  1
ACDBDICTIONARYWDFLT
  2
AcDbDictionaryWithDefault
  3
ObjectDBX Classes
 90
        0
280
     0
281
     0
  0
CLASS
  1
VISUALSTYLE
  2
AcDbVisualStyle
  3
ObjectDBX Classes
 90
     4095
280
     0
281
     0
  0
CLASS
  1
MATERIAL
  2
AcDbMaterial
  3
ObjectDBX Classes
 90
     1153
280
     0
281
     0
  0
CLASS
  1
ACDBPLACEHOLDER
  2
AcDbPlaceHolder
  3
ObjectDBX Classes
 90
        0
280
     0
281
     0
  0
CLASS
  1
LAYOUT
  2
AcDbLayout
  3
ObjectDBX Classes
 90
        0
280
     0
281
     0
  0
ENDSEC
  0
SECTION
  2
TABLES
  0
TABLE
  2
VPORT
  5
8
330
0
100
AcDbSymbolTable
 70
     1
  0
VPORT
  5
29
330
8
100
AcDbSymbolTableRecord
100
AcDbViewportTableRecord
  2
*Active
 70
     0
 10
0.0
 20
0.0
 11
1.0
 21
1.0
 12
21.59
 22
13.97
 13
0.0
 23
0.0
 14
10.0
 24
10.0
 15
10.0
 25
10.0
 16
0.0
 26
0.0
 36
1.0
 17
0.0
 27
0.0
 37
0.0
 40
27.94
 41
1.5454545455
 42
50.0
 43
0.0
 44
0.0
 50
0.0
 51
0.0
 71
     0
 72
  2000
 73
     1
 74
     3
 75
     0
 76
     0
 77
     0
 78
     0
281
     0
 65
     1
110
0.0
120
0.0
130
0.0
111
1.0
121
0.0
131
0.0
112
0.0
122
1.0
132
0.0
 79
     0
146
0.0
  0
ENDTAB
  0
TABLE
  2
LTYPE
  5
5
330
0
100
AcDbSymbolTable
 70
     6
  0
LTYPE
  5
14
330
5
100
AcDbSymbolTableRecord
100
AcDbLinetypeTableRecord
  2
ByBlock
 70
     0
  3

 72
    65
 73
     0
 40
0.0
  0
LTYPE
  5
15
330
5
100
AcDbSymbolTableRecord
100
AcDbLinetypeTableRecord
  2
ByLayer
 70
     0
  3

 72
    65
 73
     0
 40
0.0
  0
LTYPE
  5
16
330
5
100
AcDbSymbolTableRecord
100
AcDbLinetypeTableRecord
  2
Continuous
 70
     0
  3
Solid line
 72
    65
 73
     0
 40
0.0
  0
LTYPE
  5
3F
330
5
100
AcDbSymbolTableRecord
100
AcDbLinetypeTableRecord
  2
HIDDEN
 70
     0
  3
Hidden __ __ __ __ __ __ __ __ __ __ __ __ __ __
 72
    65
 73
     2
 40
0.1905
 49
0.127
 74
     0
 49
-0.0635
 74
     0
  0
LTYPE
  5
40
330
5
100
AcDbSymbolTableRecord
100
AcDbLinetypeTableRecord
  2
PHANTOM
 70
     0
  3
Phantom ______  __  __  ______  __  __  ______
 72
    65
 73
     6
 40
1.27
 49
0.635
 74
     0
 49
-0.127
 74
     0
 49
0.127
 74
     0
 49
-0.127
 74
     0
 49
0.127
 74
     0
 49
-0.127
 74
     0
  0
LTYPE
  5
41
330
5
100
AcDbSymbolTableRecord
100
AcDbLinetypeTableRecord
  2
CENTER
 70
     0
  3
Center ____ _ ____ _ ____ _ ____ _ ____ _ ____
 72
    65
 73
     4
 40
1.016
 49
0.635
 74
     0
 49
-0.127
 74
     0
 49
0.127
 74
     0
 49
-0.127
 74
     0
  0
LTYPE
  5
42
330
5
100
AcDbSymbolTableRecord
100
AcDbLinetypeTableRecord
  2
CENTERX2
 70
     0
  3
Center (2x) ________  __  ________  __  _____
 72
    65
 73
     4
 40
2.032
 49
1.27
 74
     0
 49
-0.254
 74
     0
 49
0.254
 74
     0
 49
-0.254
 74
     0
  0
LTYPE
  5
43
330
5
100
AcDbSymbolTableRecord
100
AcDbLinetypeTableRecord
  2
DOT2
 70
     0
  3
Dot (.5x) ........................................
 72
    65
 73
     2
 40
0.0635
 49
0.0
 74
     0
 49
-0.0635
 74
     0
  0
ENDTAB
  0
TABLE
  2
LAYER
  5
2
330
0
100
AcDbSymbolTable
 70
     2
  0
LAYER
  5
10
330
2
100
AcDbSymbolTableRecord
100
AcDbLayerTableRecord
  2
0
 70
     0
 62
     7
  6
Continuous
370
    -3
390
F
  0
LAYER
  5
44
330
2
100
AcDbSymbolTableRecord
100
AcDbLayerTableRecord
  2
FORMAT
 70
     0
 62
     7
  6
Continuous
370
    -3
390
F
  0
ENDTAB
  0
TABLE
  2
STYLE
  5
3
330
0
100
AcDbSymbolTable
 70
     5
  0
STYLE
  5
11
330
3
100
AcDbSymbolTableRecord
100
AcDbTextStyleTableRecord
  2
Standard
 70
     0
 40
0.0
 41
1.0
 50
0.0
 71
     0
 42
2.5
  3
txt
  4

  0
STYLE
  5
7E
330
3
100
AcDbSymbolTableRecord
100
AcDbTextStyleTableRecord
  2
SLDTEXTSTYLE0
 70
     0
 40
0.0
 41
0.75
 50
0.0
 71
     0
 42
0.2
  3
TXT
  4

  0
STYLE
  5
A9
330
3
100
AcDbSymbolTableRecord
100
AcDbTextStyleTableRecord
  2
SLDTEXTSTYLE1
 70
     0
 40
0.0
 41
0.6944444444
 50
0.0
 71
     0
 42
0.2
  3
TXT
  4

  0
STYLE
  5
AD
330
3
100
AcDbSymbolTableRecord
100
AcDbTextStyleTableRecord
  2
SLDTEXTSTYLE2
 70
     0
 40
0.0
 41
0.6875
 50
0.0
 71
     0
 42
0.2
  3
TXT
  4

  0
STYLE
  5
B2
330
3
100
AcDbSymbolTableRecord
100
AcDbTextStyleTableRecord
  2
SLDTEXTSTYLE3
 70
     0
 40
0.0
 41
0.7
 50
0.0
 71
     0
 42
0.2
  3
TXT
  4

  0
ENDTAB
  0
TABLE
  2
VIEW
  5
6
330
0
100
AcDbSymbolTable
 70
     0
  0
ENDTAB
  0
TABLE
  2
UCS
  5
7
330
0
100
AcDbSymbolTable
 70
     0
  0
ENDTAB
  0
TABLE
  2
APPID
  5
9
330
0
100
AcDbSymbolTable
 70
     1
  0
APPID
  5
12
330
9
100
AcDbSymbolTableRecord
100
AcDbRegAppTableRecord
  2
ACAD
 70
     0
  0
ENDTAB
  0
TABLE
  2
DIMSTYLE
  5
A
330
0
100
AcDbSymbolTable
 70
     7
100
AcDbDimStyleTable
  0
DIMSTYLE
105
27
330
A
100
AcDbSymbolTableRecord
100
AcDbDimStyleTableRecord
  2
ISO-25
 70
     0
 41
2.5
 42
0.625
 43
3.75
 44
1.25
 73
     0
 74
     0
 77
     1
 78
     8
140
2.5
141
2.5
143
0.0393700787
147
0.625
171
     3
172
     1
178
     0
271
     2
272
     2
274
     3
278
    44
283
     0
284
     8
340
11
  0
DIMSTYLE
105
E0
102
{ACAD_REACTORS
330
DF
330
F7
330
134
330
13F
102
}
330
A
100
AcDbSymbolTableRecord
100
AcDbDimStyleTableRecord
  2
SLDDIMSTYLE0
 70
     0
 41
0.3302
 44
0.0
 78
    12
 79
     3
140
0.3175
144
0.5
147
0.079375
173
     1
178
     0
179
     2
272
     2
276
     2
284
    12
340
7E
  0
DIMSTYLE
105
EC
102
{ACAD_REACTORS
330
EB
102
}
330
A
100
AcDbSymbolTableRecord
100
AcDbDimStyleTableRecord
  2
SLDDIMSTYLE1
 70
     0
 41
0.3302
 44
0.0
 45
0.000000001
 78
     4
 79
     1
140
0.3175
144
0.5
147
0.079375
173
     1
178
     0
271
     2
272
     2
276
     2
284
    12
340
7E
  0
DIMSTYLE
105
103
102
{ACAD_REACTORS
330
102
102
}
330
A
100
AcDbSymbolTableRecord
100
AcDbDimStyleTableRecord
  2
SLDDIMSTYLE2
 70
     0
 41
0.3302
 44
0.0
 45
0.000000001
 78
    12
 79
     3
140
0.3175
144
0.5
147
0.079375
173
     1
178
     0
271
     2
272
     2
276
     2
284
    12
340
7E
  0
DIMSTYLE
105
110
102
{ACAD_REACTORS
330
10F
330
118
330
121
102
}
330
A
100
AcDbSymbolTableRecord
100
AcDbDimStyleTableRecord
  2
SLDDIMSTYLE3
 70
     0
 41
0.3302
 44
0.0
 45
0.000000001
 78
     4
 79
     1
140
0.3175
141
0.0
144
0.5
147
0.079375
173
     1
178
     0
271
     2
272
     2
276
     2
284
    12
340
7E
  0
DIMSTYLE
105
12B
102
{ACAD_REACTORS
330
12A
330
14A
102
}
330
A
100
AcDbSymbolTableRecord
100
AcDbDimStyleTableRecord
  2
SLDDIMSTYLE4
 70
     0
 41
0.3302
 44
0.0
 45
0.000000001
 78
     4
 79
     1
140
0.3175
141
0.0
144
0.5
147
0.079375
173
     1
178
     0
271
     2
272
     2
276
     2
284
    12
340
7E
  0
DIMSTYLE
105
15B
102
{ACAD_REACTORS
330
15A
102
}
330
A
100
AcDbSymbolTableRecord
100
AcDbDimStyleTableRecord
  2
SLDDIMSTYLE5
 70
     0
 41
0.3302
 44
0.0
 45
0.000000001
 78
     4
 79
     1
140
0.3175
144
0.5
147
0.079375
172
     1
173
     1
178
     0
271
     2
272
     2
276
     2
284
    12
289
     0
340
7E
  0
ENDTAB
  0
TABLE
  2
BLOCK_RECORD
  5
1
330
0
100
AcDbSymbolTable
 70
    17
  0
BLOCK_RECORD
  5
1F
330
1
100
AcDbSymbolTableRecord
100
AcDbBlockTableRecord
  2
*Model_Space
340
22
  0
BLOCK_RECORD
  5
1B
330
1
100
AcDbSymbolTableRecord
100
AcDbBlockTableRecord
  2
*Paper_Space
340
1E
  0
BLOCK_RECORD
  5
23
330
1
100
AcDbSymbolTableRecord
100
AcDbBlockTableRecord
  2
*Paper_Space0
340
26
  0
BLOCK_RECORD
  5
7B
330
1
100
AcDbSymbolTableRecord
100
AcDbBlockTableRecord
  2
SW_NOTE_0
340
0
102
{BLKREFS
331
83
102
}
  0
BLOCK_RECORD
  5
85
330
1
100
AcDbSymbolTableRecord
100
AcDbBlockTableRecord
  2
SW_NOTE_1
340
0
102
{BLKREFS
331
8B
102
}
  0
BLOCK_RECORD
  5
AF
330
1
100
AcDbSymbolTableRecord
100
AcDbBlockTableRecord
  2
SW_NOTE_2
340
0
102
{BLKREFS
331
B7
102
}
  0
BLOCK_RECORD
  5
BA
330
1
100
AcDbSymbolTableRecord
100
AcDbBlockTableRecord
  2
SW_NOTE_3
340
0
102
{BLKREFS
331
C0
102
}
  0
BLOCK_RECORD
  5
E1
330
1
100
AcDbSymbolTableRecord
100
AcDbBlockTableRecord
  2
*D5
340
0
  0
BLOCK_RECORD
  5
ED
330
1
100
AcDbSymbolTableRecord
100
AcDbBlockTableRecord
  2
*D6
340
0
  0
BLOCK_RECORD
  5
F8
330
1
100
AcDbSymbolTableRecord
100
AcDbBlockTableRecord
  2
*D7
340
0
  0
BLOCK_RECORD
  5
104
330
1
100
AcDbSymbolTableRecord
100
AcDbBlockTableRecord
  2
*D8
340
0
  0
BLOCK_RECORD
  5
111
330
1
100
AcDbSymbolTableRecord
100
AcDbBlockTableRecord
  2
*D9
340
0
  0
BLOCK_RECORD
  5
119
330
1
100
AcDbSymbolTableRecord
100
AcDbBlockTableRecord
  2
*D10
340
0
  0
BLOCK_RECORD
  5
122
330
1
100
AcDbSymbolTableRecord
100
AcDbBlockTableRecord
  2
*D11
340
0
  0
BLOCK_RECORD
  5
12C
330
1
100
AcDbSymbolTableRecord
100
AcDbBlockTableRecord
  2
*D12
340
0
  0
BLOCK_RECORD
  5
135
330
1
100
AcDbSymbolTableRecord
100
AcDbBlockTableRecord
  2
*D13
340
0
  0
BLOCK_RECORD
  5
140
330
1
100
AcDbSymbolTableRecord
100
AcDbBlockTableRecord
  2
*D14
340
0
  0
BLOCK_RECORD
  5
14B
330
1
100
AcDbSymbolTableRecord
100
AcDbBlockTableRecord
  2
*D15
340
0
  0
BLOCK_RECORD
  5
15C
330
1
100
AcDbSymbolTableRecord
100
AcDbBlockTableRecord
  2
*D16
340
0
  0
ENDTAB
  0
ENDSEC
  0
SECTION
  2
BLOCKS
  0
BLOCK
  5
20
330
1F
100
AcDbEntity
  8
0
100
AcDbBlockBegin
  2
*Model_Space
 70
     0
 10
0.0
 20
0.0
 30
0.0
  3
*Model_Space
  1

  0
ENDBLK
  5
21
330
1F
100
AcDbEntity
  8
0
100
AcDbBlockEnd
  0
BLOCK
  5
1C
330
1B
100
AcDbEntity
 67
     1
  8
0
100
AcDbBlockBegin
  2
*Paper_Space
 70
     0
 10
0.0
 20
0.0
 30
0.0
  3
*Paper_Space
  1

  0
ENDBLK
  5
1D
330
1B
100
AcDbEntity
 67
     1
  8
0
100
AcDbBlockEnd
  0
BLOCK
  5
24
330
23
100
AcDbEntity
  8
0
100
AcDbBlockBegin
  2
*Paper_Space0
 70
     0
 10
0.0
 20
0.0
 30
0.0
  3
*Paper_Space0
  1

  0
ENDBLK
  5
25
330
23
100
AcDbEntity
  8
0
100
AcDbBlockEnd
  0
BLOCK
  5
7C
330
7B
100
AcDbEntity
  8
0
100
AcDbBlockBegin
  2
SW_NOTE_0
 70
     0
 10
0.0
 20
0.0
 30
0.0
  3
SW_NOTE_0
  1

  0
MTEXT
  5
7F
330
7B
100
AcDbEntity
  8
0
  6
Continuous
 62
     0
370
     0
100
AcDbMText
 10
0.0
 20
0.4092790074
 30
0.0
 40
0.3175
 41
0.0
 71
     1
 72
     1
  1
THRU hole (x2)
  7
SLDTEXTSTYLE0
 73
     1
 44
1.0
  0
MTEXT
  5
80
330
7B
100
AcDbEntity
  8
0
  6
Continuous
 62
     0
370
     0
100
AcDbMText
 10
0.0
 20
-0.1926480905
 30
0.0
 40
0.3175
 41
0.0
 71
     1
 72
     1
  1
KEEP OUT area
  7
SLDTEXTSTYLE0
 73
     1
 44
1.0
  0
MTEXT
  5
81
330
7B
100
AcDbEntity
  8
0
  6
Continuous
 62
     0
370
     0
100
AcDbMText
 10
3.2305626431
 20
-0.0996029583
 30
0.0
 40
0.3175
 41
0.0
 71
     1
 72
     1
  1
%%c
  7
SLDTEXTSTYLE0
 73
     1
 44
1.0
  0
MTEXT
  5
82
330
7B
100
AcDbEntity
  8
0
  6
Continuous
 62
     0
370
     0
100
AcDbMText
 10
3.7093923427
 20
-0.0947522636
 30
0.0
 40
0.3175
 41
0.0
 71
     1
 72
     1
  1
0.500
  7
SLDTEXTSTYLE0
 73
     1
 44
1.0
  0
ENDBLK
  5
7D
330
7B
100
AcDbEntity
  8
0
100
AcDbBlockEnd
  0
BLOCK
  5
86
330
85
100
AcDbEntity
  8
0
100
AcDbBlockBegin
  2
SW_NOTE_1
 70
     0
 10
0.0
 20
0.0
 30
0.0
  3
SW_NOTE_1
  1

  0
MTEXT
  5
88
330
85
100
AcDbEntity
  8
0
  6
Continuous
 62
     0
370
     0
100
AcDbMText
 10
0.0
 20
0.4092790074
 30
0.0
 40
0.3175
 41
0.0
 71
     1
 72
     1
  1
THRU hole (x14)
  7
SLDTEXTSTYLE0
 73
     1
 44
1.0
  0
MTEXT
  5
89
330
85
100
AcDbEntity
  8
0
  6
Continuous
 62
     0
370
     0
100
AcDbMText
 10
0.0
 20
-0.18779739
 30
0.0
 40
0.3175
 41
0.0
 71
     1
 72
     1
  1
B.C.
  7
SLDTEXTSTYLE0
 73
     1
 44
1.0
  0
MTEXT
  5
8A
330
85
100
AcDbEntity
  8
0
  6
Continuous
 62
     0
370
     0
100
AcDbMText
 10
1.0578923728
 20
-0.0947522636
 30
0.0
 40
0.3175
 41
0.0
 71
     1
 72
     1
  1
25.71°
  7
SLDTEXTSTYLE0
 73
     1
 44
1.0
  0
ENDBLK
  5
87
330
85
100
AcDbEntity
  8
0
100
AcDbBlockEnd
  0
BLOCK
  5
B0
330
AF
100
AcDbEntity
  8
0
100
AcDbBlockBegin
  2
SW_NOTE_2
 70
     0
 10
0.0
 20
0.0
 30
0.0
  3
SW_NOTE_2
  1

  0
MTEXT
  5
B3
330
AF
100
AcDbEntity
  8
0
  6
Continuous
 62
     0
370
     0
100
AcDbMText
 10
0.0
 20
0.3751724234
 30
0.0
 40
0.2910416667
 41
0.0
 71
     1
 72
     1
  1
Dimensions are in  cm
  7
SLDTEXTSTYLE3
 73
     1
 44
1.0
  0
MTEXT
  5
B4
330
AF
100
AcDbEntity
  8
0
  6
Continuous
 62
     0
370
     0
100
AcDbMText
 10
0.0
 20
-0.0128831274
 30
0.0
 40
0.2910416667
 41
0.0
 71
     1
 72
     1
  1
Tolerances:
  7
SLDTEXTSTYLE3
 73
     1
 44
1.0
  0
MTEXT
  5
B5
330
AF
100
AcDbEntity
  8
0
  6
Continuous
 62
     0
370
     0
100
AcDbMText
 10
0.0
 20
-0.4009386783
 30
0.0
 40
0.2910416667
 41
0.0
 71
     1
 72
     1
  1
+/- .05 cm
  7
SLDTEXTSTYLE3
 73
     1
 44
1.0
  0
MTEXT
  5
B6
330
AF
100
AcDbEntity
  8
0
  6
Continuous
 62
     0
370
     0
100
AcDbMText
 10
0.0909505208
 20
-0.7889942292
 30
0.0
 40
0.2910416667
 41
0.0
 71
     1
 72
     1
  1
+/- .5 degree
  7
SLDTEXTSTYLE3
 73
     1
 44
1.0
  0
ENDBLK
  5
B1
330
AF
100
AcDbEntity
  8
0
100
AcDbBlockEnd
  0
BLOCK
  5
BB
330
BA
100
AcDbEntity
  8
0
100
AcDbBlockBegin
  2
SW_NOTE_3
 70
     0
 10
0.0
 20
0.0
 30
0.0
  3
SW_NOTE_3
  1

  0
MTEXT
  5
BD
330
BA
100
AcDbEntity
  8
0
  6
Continuous
 62
     0
370
     0
100
AcDbMText
 10
0.0
 20
0.4092790074
 30
0.0
 40
0.3175
 41
0.0
 71
     1
 72
     1
  1
Brendan Bickford
  7
SLDTEXTSTYLE0
 73
     1
 44
1.0
  0
MTEXT
  5
BE
330
BA
100
AcDbEntity
  8
0
  6
Continuous
 62
     0
370
     0
100
AcDbMText
 10
0.0
 20
-0.0082209819
 30
0.0
 40
0.3175
 41
0.0
 71
     1
 72
     1
  1
PICAP
  7
SLDTEXTSTYLE0
 73
     1
 44
1.0
  0
MTEXT
  5
BF
330
BA
100
AcDbEntity
  8
0
  6
Continuous
 62
     0
370
     0
100
AcDbMText
 10
0.0
 20
-0.4257209712
 30
0.0
 40
0.3175
 41
0.0
 71
     1
 72
     1
  1
UNH Space Science Center
  7
SLDTEXTSTYLE0
 73
     1
 44
1.0
  0
ENDBLK
  5
BC
330
BA
100
AcDbEntity
  8
0
100
AcDbBlockEnd
  0
BLOCK
  5
E2
330
E1
100
AcDbEntity
  8
0
100
AcDbBlockBegin
  2
*D5
 70
     1
 10
0.0
 20
0.0
 30
0.0
  3
*D5
  1

  0
ARC
  5
E4
330
E1
100
AcDbEntity
  8
0
  6
Continuous
 62
     7
370
     0
100
AcDbCircle
 10
10.6905119425
 20
9.3056773608
 30
0.0
 40
14.29156929951937
100
AcDbArc
 50
25.0
 51
47.5405422803
  0
ARC
  5
E5
330
E1
100
AcDbEntity
  8
0
  6
Continuous
 62
     7
370
     0
100
AcDbCircle
 10
10.6905119425
 20
9.3056773608
 30
0.0
 40
14.29156929951936
100
AcDbArc
 50
50.6261269744
 51
75.0439904084
  0
SOLID
  5
E6
330
E1
100
AcDbEntity
  8
0
  6
Continuous
 62
     7
370
     0
100
AcDbTrace
 10
23.6430724876
 20
15.3455555357
 30
0.0
 11
23.5458661726
 21
15.6651859666
 31
0.0
 12
23.4542873756
 22
15.6211872855
 32
0.0
 13
23.4542873756
 23
15.6211872855
 33
0.0
  0
SOLID
  5
E7
330
E1
100
AcDbEntity
  8
0
  6
Continuous
 62
     7
370
     0
100
AcDbTrace
 10
14.3788423147
 20
23.1131091317
 30
0.0
 11
14.6831746947
 21
22.9752886597
 31
0.0
 12
14.7105273277
 22
23.0731374893
 32
0.0
 13
14.7105273277
 23
23.0731374893
 33
0.0
  0
LINE
  5
E8
330
E1
100
AcDbEntity
  8
0
  6
Continuous
 62
     7
370
     0
100
AcDbLine
 10
18.9986354262
 20
13.1798189662
 30
0.0
 11
23.93082521
 21
15.4797368338
 31
0.0
  0
LINE
  5
E9
330
E1
100
AcDbEntity
  8
0
  6
Continuous
 62
     7
370
     0
100
AcDbLine
 10
13.0563070356
 20
18.1621384247
 30
0.0
 11
14.4607818743
 21
23.4198535833
 31
0.0
  0
MTEXT
  5
EA
330
E1
100
AcDbEntity
  8
0
  6
Continuous
 62
     7
370
     0
100
AcDbMText
 10
19.3139473967
 20
20.2586358792
 30
0.02
 40
0.3175
 41
0.0
 71
     1
 72
     1
  1
50.04°
  7
SLDTEXTSTYLE0
 73
     1
 44
1.0
  0
ENDBLK
  5
E3
330
E1
100
AcDbEntity
  8
0
100
AcDbBlockEnd
  0
BLOCK
  5
EE
330
ED
100
AcDbEntity
  8
0
100
AcDbBlockBegin
  2
*D6
 70
     1
 10
0.0
 20
0.0
 30
0.0
  3
*D6
  1

  0
SOLID
  5
F0
330
ED
100
AcDbEntity
  8
0
  6
Continuous
 62
     7
370
     0
100
AcDbTrace
 10
19.7086060332
 20
11.3567744851
 30
0.0
 11
19.3878741942
 21
11.2632663707
 31
0.0
 12
19.4308122096
 22
11.1711854995
 32
0.0
 13
19.4308122096
 23
11.1711854995
 33
0.0
  0
SOLID
  5
F1
330
ED
100
AcDbEntity
  8
0
  6
Continuous
 62
     7
370
     0
100
AcDbTrace
 10
11.5155836384
 20
7.536305399
 30
0.0
 11
11.8363154774
 21
7.6298135134
 31
0.0
 12
11.793377462
 22
7.7218943846
 32
0.0
 13
11.793377462
 23
7.7218943846
 33
0.0
  0
LINE
  5
F2
330
ED
100
AcDbEntity
  8
0
  6
Continuous
 62
     7
370
     0
100
AcDbLine
 10
18.9372068565
 20
13.011045358
 30
0.0
 11
19.8427873313
 21
11.0690217627
 31
0.0
  0
LINE
  5
F3
330
ED
100
AcDbEntity
  8
0
  6
Continuous
 62
     7
370
     0
100
AcDbLine
 10
10.7441844617
 20
9.1905762719
 30
0.0
 11
11.6497649365
 21
7.2485526766
 31
0.0
  0
LINE
  5
F4
330
ED
100
AcDbEntity
  8
0
  6
Continuous
 62
     7
370
     0
100
AcDbLine
 10
19.7086060332
 20
11.3567744851
 30
0.0
 11
17.1922961853
 21
10.1833999327
 31
0.0
  0
LINE
  5
F5
330
ED
100
AcDbEntity
  8
0
  6
Continuous
 62
     7
370
     0
100
AcDbLine
 10
11.5155836384
 20
7.536305399
 30
0.0
 11
16.111397649
 21
9.6793686676
 31
0.0
  0
MTEXT
  5
F6
330
ED
100
AcDbEntity
  8
0
  6
Continuous
 62
     7
370
     0
100
AcDbMText
 10
15.9950188192
 20
10.0886476575
 30
0.02
 40
0.3175
 41
0.0
 71
     1
 72
     1
  1
4.520
  7
SLDTEXTSTYLE0
 73
     1
 44
1.0
  0
ENDBLK
  5
EF
330
ED
100
AcDbEntity
  8
0
100
AcDbBlockEnd
  0
BLOCK
  5
F9
330
F8
100
AcDbEntity
  8
0
100
AcDbBlockBegin
  2
*D7
 70
     1
 10
0.0
 20
0.0
 30
0.0
  3
*D7
  1

  0
ARC
  5
FB
330
F8
100
AcDbEntity
  8
0
  6
Continuous
 62
     7
370
     0
100
AcDbCircle
 10
15.7240629131
 20
15.3091087118
 30
0.0
 40
7.647183662589181
100
AcDbArc
 50
141.4285714286
 51
154.4350057566
  0
ARC
  5
FC
330
F8
100
AcDbEntity
  8
0
  6
Continuous
 62
     7
370
     0
100
AcDbCircle
 10
15.7240629131
 20
15.3091087118
 30
0.0
 40
7.64718366258918
100
AcDbArc
 50
158.5540117925
 51
167.1428571429
  0
SOLID
  5
FD
330
F8
100
AcDbEntity
  8
0
  6
Continuous
 62
     7
370
     0
100
AcDbTrace
 10
9.7452539735
 20
20.0770497384
 30
0.0
 11
9.5046041355
 21
19.84531641
 31
0.0
 12
9.5853864001
 22
19.7836983467
 32
0.0
 13
9.5853864001
 23
19.7836983467
 33
0.0
  0
SOLID
  5
FE
330
F8
100
AcDbEntity
  8
0
  6
Continuous
 62
     7
370
     0
100
AcDbTrace
 10
8.2686101108
 20
17.0107671625
 30
0.0
 11
8.3982856626
 21
17.3186582655
 31
0.0
 12
8.2997438027
 22
17.3433981491
 32
0.0
 13
8.2997438027
 23
17.3433981491
 33
0.0
  0
LINE
  5
FF
330
F8
100
AcDbEntity
  8
0
  6
Continuous
 62
     7
370
     0
100
AcDbLine
 10
14.3738399429
 20
16.3858755996
 30
0.0
 11
9.4970224778
 21
20.2750077505
 31
0.0
  0
LINE
  5
100
330
F8
100
AcDbEntity
  8
0
  6
Continuous
 62
     7
370
     0
100
AcDbLine
 10
14.0403624087
 20
15.6934023647
 30
0.0
 11
7.9590704987
 21
17.0814175591
 31
0.0
  0
MTEXT
  5
101
330
F8
100
AcDbEntity
  8
0
  6
Continuous
 62
     7
370
     0
100
AcDbMText
 10
7.9690770108
 20
18.514381387
 30
0.02
 40
0.3175
 41
0.0
 71
     1
 72
     1
  1
25.71°
  7
SLDTEXTSTYLE0
 73
     1
 44
1.0
  0
ENDBLK
  5
FA
330
F8
100
AcDbEntity
  8
0
100
AcDbBlockEnd
  0
BLOCK
  5
105
330
104
100
AcDbEntity
  8
0
100
AcDbBlockBegin
  2
*D8
 70
     1
 10
0.0
 20
0.0
 30
0.0
  3
*D8
  1

  0
SOLID
  5
107
330
104
100
AcDbEntity
  8
0
  6
Continuous
 62
     7
370
     0
100
AcDbTrace
 10
9.2190308613
 20
16.3091087118
 30
0.0
 11
9.1682308613
 21
15.9789087118
 31
0.0
 12
9.2698308613
 22
15.9789087118
 32
0.0
 13
9.2698308613
 23
15.9789087118
 33
0.0
  0
SOLID
  5
108
330
104
100
AcDbEntity
  8
0
  6
Continuous
 62
     7
370
     0
100
AcDbTrace
 10
9.2190308613
 20
14.3091087118
 30
0.0
 11
9.2698308613
 21
14.6393087118
 31
0.0
 12
9.1682308613
 22
14.6393087118
 32
0.0
 13
9.1682308613
 23
14.6393087118
 33
0.0
  0
LINE
  5
109
330
104
100
AcDbEntity
  8
0
  6
Continuous
 62
     7
370
     0
100
AcDbLine
 10
15.5970629131
 20
16.3091087118
 30
0.0
 11
8.9015308613
 21
16.3091087118
 31
0.0
  0
LINE
  5
10A
330
104
100
AcDbEntity
  8
0
  6
Continuous
 62
     7
370
     0
100
AcDbLine
 10
15.5970629131
 20
14.3091087118
 30
0.0
 11
8.9015308613
 21
14.3091087118
 31
0.0
  0
LINE
  5
10B
330
104
100
AcDbEntity
  8
0
  6
Continuous
 62
     7
370
     0
100
AcDbLine
 10
9.2190308613
 20
16.3091087118
 30
0.0
 11
9.2190308613
 21
15.4260456455
 31
0.0
  0
LINE
  5
10C
330
104
100
AcDbEntity
  8
0
  6
Continuous
 62
     7
370
     0
100
AcDbLine
 10
9.2190308613
 20
14.3091087118
 30
0.0
 11
9.2190308613
 21
14.915500524
 31
0.0
  0
MTEXT
  5
10D
330
104
100
AcDbEntity
  8
0
  6
Continuous
 62
     7
370
     0
100
AcDbMText
 10
8.733333007
 20
15.3247795197
 30
-0.15
 40
0.3175
 41
0.0
 71
     1
 72
     1
  1
%%c
  7
SLDTEXTSTYLE0
 73
     1
 44
1.0
  0
MTEXT
  5
10E
330
104
100
AcDbEntity
  8
0
  6
Continuous
 62
     7
370
     0
100
AcDbMText
 10
9.2121626833
 20
15.3296302144
 30
-0.15
 40
0.3175
 41
0.0
 71
     1
 72
     1
  1
1
  7
SLDTEXTSTYLE0
 73
     1
 44
1.0
  0
ENDBLK
  5
106
330
104
100
AcDbEntity
  8
0
100
AcDbBlockEnd
  0
BLOCK
  5
112
330
111
100
AcDbEntity
  8
0
100
AcDbBlockBegin
  2
*D9
 70
     1
 10
0.0
 20
0.0
 30
0.0
  3
*D9
  1

  0
SOLID
  5
114
330
111
100
AcDbEntity
  8
0
  6
Continuous
 62
     7
370
     0
100
AcDbTrace
 10
14.8152743447
 20
13.0933329847
 30
0.0
 11
14.5377012284
 21
12.9074140638
 31
0.0
 12
14.6064201233
 22
12.8325790888
 32
0.0
 13
14.6064201233
 23
12.8325790888
 33
0.0
  0
LINE
  5
115
330
111
100
AcDbEntity
  8
0
  6
Continuous
 62
     7
370
     0
100
AcDbLine
 10
10.6905119425
 20
9.3056773608
 30
0.0
 11
12.7200911517
 21
11.1693840078
 31
0.0
  0
LINE
  5
116
330
111
100
AcDbEntity
  8
0
  6
Continuous
 62
     7
370
     0
100
AcDbLine
 10
14.8152743447
 20
13.0933329847
 30
0.0
 11
13.2689819217
 21
11.6734152729
 31
0.0
  0
MTEXT
  5
117
330
111
100
AcDbEntity
  8
0
  6
Continuous
 62
     7
370
     0
100
AcDbMText
 10
12.2091650618
 20
11.5786629977
 30
-0.15
 40
0.3175
 41
0.0
 71
     1
 72
     1
  1
R2.800
  7
SLDTEXTSTYLE0
 73
     1
 44
1.0
  0
ENDBLK
  5
113
330
111
100
AcDbEntity
  8
0
100
AcDbBlockEnd
  0
BLOCK
  5
11A
330
119
100
AcDbEntity
  8
0
100
AcDbBlockBegin
  2
*D10
 70
     1
 10
0.0
 20
0.0
 30
0.0
  3
*D10
  1

  0
ARC
  5
11C
330
119
100
AcDbEntity
  8
0
  6
Continuous
 62
     7
370
     0
100
AcDbCircle
 10
10.6905119425
 20
9.3056773608
 30
0.0
 40
6.600000000000001
100
AcDbArc
 50
57.402832379
 51
63.9416167573
  0
SOLID
  5
11D
330
119
100
AcDbEntity
  8
0
  6
Continuous
 62
     7
370
     0
100
AcDbTrace
 10
13.9748390757
 20
15.0304651544
 30
0.0
 11
13.7664596758
 21
14.7693316528
 31
0.0
 12
13.8545867121
 22
14.7187729199
 32
0.0
 13
13.8545867121
 23
14.7187729199
 33
0.0
  0
LINE
  5
11E
330
119
100
AcDbEntity
  8
0
  6
Continuous
 62
     7
370
     0
100
AcDbLine
 10
10.6905119425
 20
9.3056773608
 30
0.0
 11
12.4435866274
 21
12.3613962799
 31
0.0
  0
LINE
  5
11F
330
119
100
AcDbEntity
  8
0
  6
Continuous
 62
     7
370
     0
100
AcDbLine
 10
13.9748390757
 20
15.0304651544
 30
0.0
 11
12.732750806
 21
12.8654275451
 31
0.0
  0
MTEXT
  5
120
330
119
100
AcDbEntity
  8
0
  6
Continuous
 62
     7
370
     0
100
AcDbMText
 10
11.8027972417
 20
12.7706752698
 30
-0.15
 40
0.3175
 41
0.0
 71
     1
 72
     1
  1
R3.300
  7
SLDTEXTSTYLE0
 73
     1
 44
1.0
  0
ENDBLK
  5
11B
330
119
100
AcDbEntity
  8
0
100
AcDbBlockEnd
  0
BLOCK
  5
123
330
122
100
AcDbEntity
  8
0
100
AcDbBlockBegin
  2
*D11
 70
     1
 10
0.0
 20
0.0
 30
0.0
  3
*D11
  1

  0
ARC
  5
125
330
122
100
AcDbEntity
  8
0
  6
Continuous
 62
     7
370
     0
100
AcDbCircle
 10
10.6905119425
 20
9.3056773608
 30
0.0
 40
11.50000000000001
100
AcDbArc
 50
87.0465477667
 51
91.5636329942
  0
SOLID
  5
126
330
122
100
AcDbEntity
  8
0
  6
Continuous
 62
     7
370
     0
100
AcDbTrace
 10
10.6940900524
 20
20.8056768042
 30
0.0
 11
10.6431873164
 21
20.4754926261
 31
0.0
 12
10.7447873115
 22
20.4754610142
 32
0.0
 13
10.7447873115
 23
20.4754610142
 33
0.0
  0
LINE
  5
127
330
122
100
AcDbEntity
  8
0
  6
Continuous
 62
     7
370
     0
100
AcDbLine
 10
10.6905119425
 20
9.3056773608
 30
0.0
 11
10.6917071443
 21
13.147040732
 31
0.0
  0
LINE
  5
128
330
122
100
AcDbEntity
  8
0
  6
Continuous
 62
     7
370
     0
100
AcDbLine
 10
10.6940900524
 20
20.8056768042
 30
0.0
 11
10.6918639686
 21
13.6510719972
 31
0.0
  0
MTEXT
  5
129
330
122
100
AcDbEntity
  8
0
  6
Continuous
 62
     7
370
     0
100
AcDbMText
 10
9.9064140815
 20
13.5563197219
 30
-0.15
 40
0.3175
 41
0.0
 71
     1
 72
     1
  1
R5.750
  7
SLDTEXTSTYLE0
 73
     1
 44
1.0
  0
ENDBLK
  5
124
330
122
100
AcDbEntity
  8
0
100
AcDbBlockEnd
  0
BLOCK
  5
12D
330
12C
100
AcDbEntity
  8
0
100
AcDbBlockBegin
  2
*D12
 70
     1
 10
0.0
 20
0.0
 30
0.0
  3
*D12
  1

  0
SOLID
  5
12F
330
12C
100
AcDbEntity
  8
0
  6
Continuous
 62
     7
370
     0
100
AcDbTrace
 10
19.1213117997
 20
13.0935599717
 30
0.0
 11
19.4415564878
 21
12.99839685
 31
0.0
 12
19.455351429
 22
13.0990559757
 32
0.0
 13
19.455351429
 23
13.0990559757
 33
0.0
  0
LINE
  5
130
330
12C
100
AcDbEntity
  8
0
  6
Continuous
 62
     7
370
     0
100
AcDbLine
 10
19.1213117997
 20
13.0935599717
 30
0.0
 11
22.6248630812
 21
12.6134119125
 31
0.0
  0
LINE
  5
131
330
12C
100
AcDbEntity
  8
0
  6
Continuous
 62
     7
370
     0
100
AcDbLine
 10
22.6248630812
 20
12.6134119125
 30
0.0
 11
23.2598630812
 21
12.6134119125
 31
0.0
  0
MTEXT
  5
132
330
12C
100
AcDbEntity
  8
0
  6
Continuous
 62
     7
370
     0
100
AcDbMText
 10
23.2598630812
 20
12.7674183475
 30
-0.15
 40
0.3175
 41
0.0
 71
     1
 72
     1
  1
%%c
  7
SLDTEXTSTYLE0
 73
     1
 44
1.0
  0
MTEXT
  5
133
330
12C
100
AcDbEntity
  8
0
  6
Continuous
 62
     7
370
     0
100
AcDbMText
 10
23.7386927575
 20
12.7722690421
 30
-0.15
 40
0.3175
 41
0.0
 71
     1
 72
     1
  1
0.240
  7
SLDTEXTSTYLE0
 73
     1
 44
1.0
  0
ENDBLK
  5
12E
330
12C
100
AcDbEntity
  8
0
100
AcDbBlockEnd
  0
BLOCK
  5
136
330
135
100
AcDbEntity
  8
0
100
AcDbBlockBegin
  2
*D13
 70
     1
 10
0.0
 20
0.0
 30
0.0
  3
*D13
  1

  0
ARC
  5
138
330
135
100
AcDbEntity
  8
0
  6
Continuous
 62
     7
370
     0
100
AcDbCircle
 10
10.6905119425
 20
9.3056773608
 30
0.0
 40
12.99619436335666
100
AcDbArc
 50
35.0
 51
49.5176257166
  0
ARC
  5
139
330
135
100
AcDbEntity
  8
0
  6
Continuous
 62
     7
370
     0
100
AcDbCircle
 10
10.6905119425
 20
9.3056773608
 30
0.0
 40
12.99619436335666
100
AcDbArc
 50
53.0717676998
 51
65.0439904084
  0
SOLID
  5
13A
330
135
100
AcDbEntity
  8
0
  6
Continuous
 62
     7
370
     0
100
AcDbTrace
 10
21.3363711232
 20
16.7599882099
 30
0.0
 11
21.1847956386
 21
17.0577088045
 31
0.0
 12
21.1023166384
 22
16.9983811169
 32
0.0
 13
21.1023166384
 23
16.9983811169
 33
0.0
  0
SOLID
  5
13B
330
135
100
AcDbEntity
  8
0
  6
Continuous
 62
     7
370
     0
100
AcDbTrace
 10
16.1738960887
 20
21.0884430054
 30
0.0
 11
16.4494555138
 21
20.8995523406
 31
0.0
 12
16.4934892662
 22
20.9911142795
 32
0.0
 13
16.4934892662
 23
20.9911142795
 33
0.0
  0
LINE
  5
13C
330
135
100
AcDbEntity
  8
0
  6
Continuous
 62
     7
370
     0
100
AcDbLine
 10
16.2009477444
 20
13.1641260481
 30
0.0
 11
21.5964518972
 21
16.9420987284
 31
0.0
  0
LINE
  5
13D
330
135
100
AcDbEntity
  8
0
  6
Continuous
 62
     7
370
     0
100
AcDbLine
 10
13.5287832179
 20
15.4045908023
 30
0.0
 11
16.3078564172
 21
21.3762986643
 31
0.0
  0
MTEXT
  5
13E
330
135
100
AcDbEntity
  8
0
  6
Continuous
 62
     7
370
     0
100
AcDbMText
 10
18.0818144797
 20
19.5999360858
 30
-0.15
 40
0.3175
 41
0.0
 71
     1
 72
     1
  1
30.04°
  7
SLDTEXTSTYLE0
 73
     1
 44
1.0
  0
ENDBLK
  5
137
330
135
100
AcDbEntity
  8
0
100
AcDbBlockEnd
  0
BLOCK
  5
141
330
140
100
AcDbEntity
  8
0
100
AcDbBlockBegin
  2
*D14
 70
     1
 10
0.0
 20
0.0
 30
0.0
  3
*D14
  1

  0
ARC
  5
143
330
140
100
AcDbEntity
  8
0
  6
Continuous
 62
     7
370
     0
100
AcDbCircle
 10
10.6905119425
 20
9.3056773608
 30
0.0
 40
16.14562312559804
100
AcDbArc
 50
14.3540002423
 51
49.2179732468
  0
ARC
  5
144
330
140
100
AcDbEntity
  8
0
  6
Continuous
 62
     7
370
     0
100
AcDbCircle
 10
10.6905119425
 20
9.3056773608
 30
0.0
 40
16.14562312559804
100
AcDbArc
 50
52.0378990096
 51
86.4138287922
  0
SOLID
  5
145
330
140
100
AcDbEntity
  8
0
  6
Continuous
 62
     7
370
     0
100
AcDbTrace
 10
26.3321092224
 20
13.3083740325
 30
0.0
 11
26.2960651154
 21
13.6405087978
 31
0.0
 12
26.1978994799
 22
13.6143158979
 32
0.0
 13
26.1978994799
 23
13.6143158979
 33
0.0
  0
SOLID
  5
146
330
140
100
AcDbEntity
  8
0
  6
Continuous
 62
     7
370
     0
100
AcDbTrace
 10
11.7004147921
 20
25.4196850047
 30
0.0
 11
12.026044099
 21
25.3449974255
 31
0.0
 12
12.0334355422
 22
25.4463282035
 32
0.0
 13
12.0334355422
 23
25.4463282035
 33
0.0
  0
LINE
  5
147
330
140
100
AcDbEntity
  8
0
  6
Continuous
 62
     7
370
     0
100
AcDbLine
 10
21.9545461739
 20
12.1881523102
 30
0.0
 11
26.639697669
 21
13.3870861505
 31
0.0
  0
LINE
  5
148
330
140
100
AcDbEntity
  8
0
  6
Continuous
 62
     7
370
     0
100
AcDbLine
 10
11.4177765604
 20
20.9099100013
 30
0.0
 11
11.7202743016
 21
25.7365632935
 31
0.0
  0
MTEXT
  5
149
330
140
100
AcDbEntity
  8
0
  6
Continuous
 62
     7
370
     0
100
AcDbMText
 10
20.1956558839
 20
21.9404220432
 30
-0.15
 40
0.3175
 41
0.0
 71
     1
 72
     1
  1
72.06°
  7
SLDTEXTSTYLE0
 73
     1
 44
1.0
  0
ENDBLK
  5
142
330
140
100
AcDbEntity
  8
0
100
AcDbBlockEnd
  0
BLOCK
  5
14C
330
14B
100
AcDbEntity
  8
0
100
AcDbBlockBegin
  2
*D15
 70
     1
 10
0.0
 20
0.0
 30
0.0
  3
*D15
  1

  0
SOLID
  5
14E
330
14B
100
AcDbEntity
  8
0
  6
Continuous
 62
     7
370
     0
100
AcDbTrace
 10
14.9692516387
 20
16.7857012781
 30
0.0
 11
14.7088363107
 21
16.9949774997
 31
0.0
 12
14.6579748026
 22
16.9070248591
 32
0.0
 13
14.6579748026
 23
16.9070248591
 33
0.0
  0
LINE
  5
14F
330
14B
100
AcDbEntity
  8
0
  6
Continuous
 62
     7
370
     0
100
AcDbLine
 10
14.9692516387
 20
16.7857012781
 30
0.0
 11
7.7957094944
 21
20.9340380337
 31
0.0
  0
LINE
  5
150
330
14B
100
AcDbEntity
  8
0
  6
Continuous
 62
     7
370
     0
100
AcDbLine
 10
7.7957094944
 20
20.9340380337
 30
0.0
 11
7.1607094944
 21
20.9340380337
 31
0.0
  0
MTEXT
  5
151
330
14B
100
AcDbEntity
  8
0
  6
Continuous
 62
     7
370
     0
100
AcDbMText
 10
5.3682236687
 20
21.0880444687
 30
-0.15
 40
0.3175
 41
0.0
 71
     1
 72
     1
  1
%%c
  7
SLDTEXTSTYLE0
 73
     1
 44
1.0
  0
MTEXT
  5
152
330
14B
100
AcDbEntity
  8
0
  6
Continuous
 62
     7
370
     0
100
AcDbMText
 10
5.847053345
 20
21.0928951634
 30
-0.15
 40
0.3175
 41
0.0
 71
     1
 72
     1
  1
0.070
  7
SLDTEXTSTYLE0
 73
     1
 44
1.0
  0
ENDBLK
  5
14D
330
14B
100
AcDbEntity
  8
0
100
AcDbBlockEnd
  0
BLOCK
  5
15D
330
15C
100
AcDbEntity
  8
0
100
AcDbBlockBegin
  2
*D16
 70
     1
 10
0.0
 20
0.0
 30
0.0
  3
*D16
  1

  0
SOLID
  5
15F
330
15C
100
AcDbEntity
  8
0
  6
Continuous
 62
     7
370
     0
100
AcDbTrace
 10
25.9038203812
 20
4.1920895065
 30
0.0
 11
25.8530203812
 21
3.8618895065
 31
0.0
 12
25.9546203812
 22
3.8618895065
 32
0.0
 13
25.9546203812
 23
3.8618895065
 33
0.0
  0
SOLID
  5
160
330
15C
100
AcDbEntity
  8
0
  6
Continuous
 62
     7
370
     0
100
AcDbTrace
 10
25.9038203812
 20
4.5320895065
 30
0.0
 11
25.9546203812
 21
4.8622895065
 31
0.0
 12
25.8530203812
 22
4.8622895065
 32
0.0
 13
25.8530203812
 23
4.8622895065
 33
0.0
  0
LINE
  5
161
330
15C
100
AcDbEntity
  8
0
  6
Continuous
 62
     7
370
     0
100
AcDbLine
 10
21.9585107952
 20
4.1920895065
 30
0.0
 11
26.2213203812
 21
4.1920895065
 31
0.0
  0
LINE
  5
162
330
15C
100
AcDbEntity
  8
0
  6
Continuous
 62
     7
370
     0
100
AcDbLine
 10
21.9585107952
 20
4.5320895065
 30
0.0
 11
26.2213203812
 21
4.5320895065
 31
0.0
  0
LINE
  5
163
330
15C
100
AcDbEntity
  8
0
  6
Continuous
 62
     7
370
     0
100
AcDbLine
 10
26.5388203812
 20
5.252709394
 30
0.0
 11
25.9038203812
 21
5.252709394
 31
0.0
  0
LINE
  5
164
330
15C
100
AcDbEntity
  8
0
  6
Continuous
 62
     7
370
     0
100
AcDbLine
 10
25.9038203812
 20
5.252709394
 30
0.0
 11
25.9038203812
 21
4.5320895065
 31
0.0
  0
LINE
  5
165
330
15C
100
AcDbEntity
  8
0
  6
Continuous
 62
     7
370
     0
100
AcDbLine
 10
25.9038203812
 20
4.1920895065
 30
0.0
 11
25.9038203812
 21
3.5570895065
 31
0.0
  0
MTEXT
  5
166
330
15C
100
AcDbEntity
  8
0
  6
Continuous
 62
     7
370
     0
100
AcDbMText
 10
26.5388203812
 20
5.4099727513
 30
2.2546953941
 40
0.3175
 41
0.0
 71
     1
 72
     1
  1
0.170
  7
SLDTEXTSTYLE0
 73
     1
 44
1.0
  0
ENDBLK
  5
15E
330
15C
100
AcDbEntity
  8
0
100
AcDbBlockEnd
  0
ENDSEC
  0
SECTION
  2
ENTITIES
  0
LINE
  5
45
330
1F
100
AcDbEntity
  8
0
  6
Continuous
 62
     7
370
     0
100
AcDbLine
 10
1.5906790757
 20
27.0308658537
 30
0.0
 11
41.5956790757
 21
27.0308658537
 31
0.0
  0
LINE
  5
46
330
1F
100
AcDbEntity
  8
0
  6
Continuous
 62
     7
370
     0
100
AcDbLine
 10
1.5906790757
 20
27.0308658537
 30
0.0
 11
1.5906790757
 21
0.9958658537
 31
0.0
  0
LINE
  5
47
330
1F
100
AcDbEntity
  8
0
  6
Continuous
 62
     7
370
     0
100
AcDbLine
 10
41.5956790757
 20
0.9958658537
 30
0.0
 11
1.5906790757
 21
0.9958658537
 31
0.0
  0
LINE
  5
48
330
1F
100
AcDbEntity
  8
0
  6
Continuous
 62
     7
370
     0
100
AcDbLine
 10
41.5956790757
 20
0.9958658537
 30
0.0
 11
41.5956790757
 21
27.0308658537
 31
0.0
  0
LINE
  5
49
330
1F
100
AcDbEntity
  8
0
  6
Continuous
 62
     7
370
     0
100
AcDbLine
 10
41.5956790757
 20
20.511242124
 30
0.0
 11
41.9131790757
 21
20.511242124
 31
0.0
  0
LINE
  5
4A
330
1F
100
AcDbEntity
  8
0
  6
Continuous
 62
     7
370
     0
100
AcDbLine
 10
41.5956790757
 20
14.002492124
 30
0.0
 11
41.9131790757
 21
14.002492124
 31
0.0
  0
LINE
  5
4B
330
1F
100
AcDbEntity
  8
0
  6
Continuous
 62
     7
370
     0
100
AcDbLine
 10
41.5956790757
 20
14.002492124
 30
0.0
 11
41.7663199057
 21
14.0634766362
 31
0.0
  0
LINE
  5
4C
330
1F
100
AcDbEntity
  8
0
  6
Continuous
 62
     7
370
     0
100
AcDbLine
 10
41.5956790757
 20
14.002492124
 30
0.0
 11
41.7663199057
 21
13.9451426693
 31
0.0
  0
LINE
  5
4D
330
1F
100
AcDbEntity
  8
0
  6
Continuous
 62
     7
370
     0
100
AcDbLine
 10
41.7663199057
 20
14.0634766362
 30
0.0
 11
41.7663199057
 21
13.9451426693
 31
0.0
  0
LINE
  5
4E
330
1F
100
AcDbEntity
  8
0
  6
Continuous
 62
     7
370
     0
100
AcDbLine
 10
41.5956790757
 20
14.002492124
 30
0.0
 11
41.7663199057
 21
14.0254490461
 31
0.0
  0
LINE
  5
4F
330
1F
100
AcDbEntity
  8
0
  6
Continuous
 62
     7
370
     0
100
AcDbLine
 10
41.5956790757
 20
14.002492124
 30
0.0
 11
41.7663199057
 21
13.9763094991
 31
0.0
  0
LINE
  5
50
330
1F
100
AcDbEntity
  8
0
  6
Continuous
 62
     7
370
     0
100
AcDbLine
 10
41.5956790757
 20
7.493742124
 30
0.0
 11
41.9131790757
 21
7.493742124
 31
0.0
  0
LINE
  5
51
330
1F
100
AcDbEntity
  8
0
  6
Continuous
 62
     7
370
     0
100
AcDbLine
 10
1.5906790757
 20
7.5046158537
 30
0.0
 11
1.2731790757
 21
7.5046158537
 31
0.0
  0
LINE
  5
52
330
1F
100
AcDbEntity
  8
0
  6
Continuous
 62
     7
370
     0
100
AcDbLine
 10
1.5906790757
 20
14.0133658537
 30
0.0
 11
1.4200382458
 21
13.9871832288
 31
0.0
  0
LINE
  5
53
330
1F
100
AcDbEntity
  8
0
  6
Continuous
 62
     7
370
     0
100
AcDbLine
 10
1.5906790757
 20
14.0133658537
 30
0.0
 11
1.4200382458
 21
14.0363227758
 31
0.0
  0
LINE
  5
54
330
1F
100
AcDbEntity
  8
0
  6
Continuous
 62
     7
370
     0
100
AcDbLine
 10
1.4200382458
 20
14.0743503658
 30
0.0
 11
1.4200382458
 21
13.956016399
 31
0.0
  0
LINE
  5
55
330
1F
100
AcDbEntity
  8
0
  6
Continuous
 62
     7
370
     0
100
AcDbLine
 10
1.5906790757
 20
14.0133658537
 30
0.0
 11
1.4200382458
 21
13.956016399
 31
0.0
  0
LINE
  5
56
330
1F
100
AcDbEntity
  8
0
  6
Continuous
 62
     7
370
     0
100
AcDbLine
 10
1.5906790757
 20
14.0133658537
 30
0.0
 11
1.4200382458
 21
14.0743503658
 31
0.0
  0
LINE
  5
57
330
1F
100
AcDbEntity
  8
0
  6
Continuous
 62
     7
370
     0
100
AcDbLine
 10
1.5906790757
 20
14.0133658537
 30
0.0
 11
1.2731790757
 21
14.0133658537
 31
0.0
  0
LINE
  5
58
330
1F
100
AcDbEntity
  8
0
  6
Continuous
 62
     7
370
     0
100
AcDbLine
 10
1.5906790757
 20
20.5221158537
 30
0.0
 11
1.2731790757
 21
20.5221158537
 31
0.0
  0
LINE
  5
59
330
1F
100
AcDbEntity
  8
0
  6
Continuous
 62
     7
370
     0
100
AcDbLine
 10
26.7830521828
 20
0.9958658537
 30
0.0
 11
26.7830521828
 21
6.7194381792
 31
0.0
  0
LINE
  5
5A
330
1F
100
AcDbEntity
  8
0
  6
Continuous
 62
     7
370
     0
100
AcDbLine
 10
26.7830521828
 20
6.7194381792
 30
0.0
 11
41.5956790757
 21
6.7194381792
 31
0.0
  0
LINE
  5
5B
330
1F
100
AcDbEntity
  8
0
  6
Continuous
 62
     7
370
     0
100
AcDbLine
 10
32.0137251584
 20
6.7194381792
 30
0.0
 11
32.0137251584
 21
0.9958658537
 31
0.0
  0
LINE
  5
5C
330
1F
100
AcDbEntity
  8
0
  6
Continuous
 62
     7
370
     0
100
AcDbLine
 10
32.0137251584
 20
1.5365958856
 30
0.0
 11
41.5956790757
 21
1.5365958856
 31
0.0
  0
LINE
  5
5D
330
1F
100
AcDbEntity
  8
0
  6
Continuous
 62
     7
370
     0
100
AcDbLine
 10
32.0137251584
 20
2.824318064
 30
0.0
 11
41.5956790757
 21
2.824318064
 31
0.0
  0
LINE
  5
5E
330
1F
100
AcDbEntity
  8
0
  6
Continuous
 62
     7
370
     0
100
AcDbLine
 10
32.0137251584
 20
5.052746742
 30
0.0
 11
41.5956790757
 21
5.052746742
 31
0.0
  0
LINE
  5
5F
330
1F
100
AcDbEntity
  8
0
  6
Continuous
 62
     7
370
     0
100
AcDbLine
 10
33.3268779464
 20
2.824318064
 30
0.0
 11
33.3268779464
 21
1.5365958856
 31
0.0
  0
LINE
  5
60
330
1F
100
AcDbEntity
  8
0
  6
Continuous
 62
     7
370
     0
100
AcDbLine
 10
36.6792970304
 20
1.5365958856
 30
0.0
 11
36.6792970304
 21
0.9958658537
 31
0.0
  0
LINE
  5
61
330
1F
100
AcDbEntity
  8
0
  6
Continuous
 62
     7
370
     0
100
AcDbLine
 10
40.1429634252
 20
2.824318064
 30
0.0
 11
40.1429634252
 21
1.5365958856
 31
0.0
  0
LINE
  5
62
330
1F
100
AcDbEntity
  8
0
  6
Continuous
 62
     7
370
     0
100
AcDbLine
 10
39.14795388
 20
1.5365958856
 30
0.0
 11
39.14795388
 21
0.9958658537
 31
0.0
  0
LINE
  5
63
330
1F
100
AcDbEntity
  8
0
  6
Continuous
 62
     7
370
     0
100
AcDbLine
 10
26.7830521828
 20
2.1932110171
 30
0.0
 11
32.0137251584
 21
2.1932110171
 31
0.0
  0
LINE
  5
64
330
1F
100
AcDbEntity
  8
0
  6
Continuous
 62
     7
370
     0
100
AcDbLine
 10
26.7830521828
 20
2.8595231875
 30
0.0
 11
32.0137251584
 21
2.824318064
 31
0.0
  0
LINE
  5
65
330
1F
100
AcDbEntity
  8
0
  6
Continuous
 62
     7
370
     0
100
AcDbLine
 10
36.5944190757
 20
0.9958658537
 30
0.0
 11
36.5944190757
 21
0.7804758709
 31
0.0
  0
LINE
  5
66
330
1F
100
AcDbEntity
  8
0
  6
Continuous
 62
     7
370
     0
100
AcDbLine
 10
31.5937940757
 20
0.9958658537
 30
0.0
 11
31.5937940757
 21
0.7804758709
 31
0.0
  0
LINE
  5
67
330
1F
100
AcDbEntity
  8
0
  6
Continuous
 62
     7
370
     0
100
AcDbLine
 10
26.5931690757
 20
0.9958658537
 30
0.0
 11
26.5931690757
 21
0.7804758709
 31
0.0
  0
LINE
  5
68
330
1F
100
AcDbEntity
  8
0
  6
Continuous
 62
     7
370
     0
100
AcDbLine
 10
21.5925440757
 20
0.9958658537
 30
0.0
 11
21.5925440757
 21
0.7804758709
 31
0.0
  0
LINE
  5
69
330
1F
100
AcDbEntity
  8
0
  6
Continuous
 62
     7
370
     0
100
AcDbLine
 10
16.5919190757
 20
0.9958658537
 30
0.0
 11
16.5919190757
 21
0.7804758709
 31
0.0
  0
LINE
  5
6A
330
1F
100
AcDbEntity
  8
0
  6
Continuous
 62
     7
370
     0
100
AcDbLine
 10
11.5912940757
 20
0.9958658537
 30
0.0
 11
11.5912940757
 21
0.7804758709
 31
0.0
  0
LINE
  5
6B
330
1F
100
AcDbEntity
  8
0
  6
Continuous
 62
     7
370
     0
100
AcDbLine
 10
6.5906690757
 20
0.9958658537
 30
0.0
 11
6.5906690757
 21
0.7804758709
 31
0.0
  0
LINE
  5
6C
330
1F
100
AcDbEntity
  8
0
  6
Continuous
 62
     7
370
     0
100
AcDbLine
 10
6.5906690757
 20
27.0308658537
 30
0.0
 11
6.5906690757
 21
27.2462558364
 31
0.0
  0
LINE
  5
6D
330
1F
100
AcDbEntity
  8
0
  6
Continuous
 62
     7
370
     0
100
AcDbLine
 10
11.5912940757
 20
27.0308658537
 30
0.0
 11
11.5912940757
 21
27.2462558364
 31
0.0
  0
LINE
  5
6E
330
1F
100
AcDbEntity
  8
0
  6
Continuous
 62
     7
370
     0
100
AcDbLine
 10
16.5919190757
 20
27.0308658537
 30
0.0
 11
16.5919190757
 21
27.2462558364
 31
0.0
  0
LINE
  5
6F
330
1F
100
AcDbEntity
  8
0
  6
Continuous
 62
     7
370
     0
100
AcDbLine
 10
21.5925440757
 20
27.0308658537
 30
0.0
 11
21.5925440757
 21
27.2462558364
 31
0.0
  0
LINE
  5
70
330
1F
100
AcDbEntity
  8
0
  6
Continuous
 62
     7
370
     0
100
AcDbLine
 10
26.5931690757
 20
27.0308658537
 30
0.0
 11
26.5931690757
 21
27.2462558364
 31
0.0
  0
LINE
  5
71
330
1F
100
AcDbEntity
  8
0
  6
Continuous
 62
     7
370
     0
100
AcDbLine
 10
31.5937940757
 20
27.0308658537
 30
0.0
 11
31.5937940757
 21
27.2462558364
 31
0.0
  0
LINE
  5
72
330
1F
100
AcDbEntity
  8
0
  6
Continuous
 62
     7
370
     0
100
AcDbLine
 10
36.5944190757
 20
27.0308658537
 30
0.0
 11
36.5944190757
 21
27.2462558364
 31
0.0
  0
LINE
  5
73
330
1F
100
AcDbEntity
  8
0
  6
Continuous
 62
     7
370
     0
100
AcDbLine
 10
21.5925440757
 20
27.0308658537
 30
0.0
 11
21.5588862374
 21
27.1373738751
 31
0.0
  0
LINE
  5
74
330
1F
100
AcDbEntity
  8
0
  6
Continuous
 62
     7
370
     0
100
AcDbLine
 10
21.5925440757
 20
27.0308658537
 30
0.0
 11
21.6244337093
 21
27.1373738751
 31
0.0
  0
LINE
  5
75
330
1F
100
AcDbEntity
  8
0
  6
Continuous
 62
     7
370
     0
100
AcDbLine
 10
21.6244337093
 20
27.1373738751
 30
0.0
 11
21.5588862374
 21
27.1373738751
 31
0.0
  0
LINE
  5
76
330
1F
100
AcDbEntity
  8
0
  6
Continuous
 62
     7
370
     0
100
AcDbLine
 10
21.5746661843
 20
27.1373738751
 30
0.0
 11
21.5925440757
 21
27.0308658537
 31
0.0
  0
LINE
  5
77
330
1F
100
AcDbEntity
  8
0
  6
Continuous
 62
     7
370
     0
100
AcDbLine
 10
21.6050122361
 20
27.1373738751
 30
0.0
 11
21.5925440757
 21
27.0308658537
 31
0.0
  0
LINE
  5
78
330
1F
100
AcDbEntity
  8
0
  6
Continuous
 62
     7
370
     0
100
AcDbLine
 10
21.5925440757
 20
0.9958658537
 30
0.0
 11
21.6244337093
 21
0.90805
 31
0.0
  0
LINE
  5
79
330
1F
100
AcDbEntity
  8
0
  6
Continuous
 62
     7
370
     0
100
AcDbLine
 10
21.6244337093
 20
0.90805
 30
0.0
 11
21.5588862374
 21
0.90805
 31
0.0
  0
LINE
  5
7A
330
1F
100
AcDbEntity
  8
0
  6
Continuous
 62
     7
370
     0
100
AcDbLine
 10
21.5588862374
 20
0.90805
 30
0.0
 11
21.5925440757
 21
0.9958658537
 31
0.0
  0
INSERT
  5
83
330
1F
100
AcDbEntity
  8
0
  6
Continuous
 62
     7
370
     0
100
AcDbBlockReference
  2
SW_NOTE_0
 10
23.6039450394
 20
11.5379920285
 30
0.0
  0
MTEXT
  5
84
330
1F
100
AcDbEntity
  8
0
  6
Continuous
 62
     7
370
     0
100
AcDbMText
 10
34.4212630031
 20
5.8004770995
 30
0.0
 40
0.47625
 41
0.0
 71
     1
 72
     1
  1
Top Circuit board
  7
SLDTEXTSTYLE0
 73
     1
 44
1.0
  0
INSERT
  5
8B
330
1F
100
AcDbEntity
  8
0
  6
Continuous
 62
     7
370
     0
100
AcDbBlockReference
  2
SW_NOTE_1
 10
5.2121080902
 20
19.8573180889
 30
0.0
  0
MTEXT
  5
8C
330
1F
100
AcDbEntity
  8
0
  6
Continuous
 62
     7
370
     0
100
AcDbMText
 10
41.8879423183
 20
24.1071405443
 30
0.0
 40
0.238125
 41
0.0
 71
     1
 72
     1
  1
D
  7
SLDTEXTSTYLE0
 73
     1
 44
1.0
  0
MTEXT
  5
8D
330
1F
100
AcDbEntity
  8
0
  6
Continuous
 62
     7
370
     0
100
AcDbMText
 10
41.8368038661
 20
17.5389022096
 30
0.0
 40
0.238125
 41
0.0
 71
     1
 72
     1
  1
C
  7
SLDTEXTSTYLE0
 73
     1
 44
1.0
  0
MTEXT
  5
8E
330
1F
100
AcDbEntity
  8
0
  6
Continuous
 62
     7
370
     0
100
AcDbMText
 10
41.9391560494
 20
11.1228837122
 30
0.0
 40
0.238125
 41
0.0
 71
     1
 72
     1
  1
B
  7
SLDTEXTSTYLE0
 73
     1
 44
1.0
  0
MTEXT
  5
8F
330
1F
100
AcDbEntity
  8
0
  6
Continuous
 62
     7
370
     0
100
AcDbMText
 10
41.8644855506
 20
4.5024691769
 30
0.0
 40
0.238125
 41
0.0
 71
     1
 72
     1
  1
A
  7
SLDTEXTSTYLE0
 73
     1
 44
1.0
  0
MTEXT
  5
90
330
1F
100
AcDbEntity
  8
0
  6
Continuous
 62
     7
370
     0
100
AcDbMText
 10
1.0820652718
 20
4.4598592477
 30
0.0
 40
0.238125
 41
0.0
 71
     1
 72
     1
  1
A
  7
SLDTEXTSTYLE0
 73
     1
 44
1.0
  0
MTEXT
  5
91
330
1F
100
AcDbEntity
  8
0
  6
Continuous
 62
     7
370
     0
100
AcDbMText
 10
1.0830603978
 20
11.1588435744
 30
0.0
 40
0.238125
 41
0.0
 71
     1
 72
     1
  1
B
  7
SLDTEXTSTYLE0
 73
     1
 44
1.0
  0
MTEXT
  5
92
330
1F
100
AcDbEntity
  8
0
  6
Continuous
 62
     7
370
     0
100
AcDbMText
 10
1.0853786142
 20
17.5522733138
 30
0.0
 40
0.238125
 41
0.0
 71
     1
 72
     1
  1
C
  7
SLDTEXTSTYLE0
 73
     1
 44
1.0
  0
MTEXT
  5
93
330
1F
100
AcDbEntity
  8
0
  6
Continuous
 62
     7
370
     0
100
AcDbMText
 10
1.0886706191
 20
24.0221703024
 30
0.0
 40
0.238125
 41
0.0
 71
     1
 72
     1
  1
D
  7
SLDTEXTSTYLE0
 73
     1
 44
1.0
  0
MTEXT
  5
94
330
1F
100
AcDbEntity
  8
0
  6
Continuous
 62
     7
370
     0
100
AcDbMText
 10
39.137124513
 20
0.7654849105
 30
0.0
 40
0.238125
 41
0.0
 71
     1
 72
     1
  1
1
  7
SLDTEXTSTYLE0
 73
     1
 44
1.0
  0
MTEXT
  5
95
330
1F
100
AcDbEntity
  8
0
  6
Continuous
 62
     7
370
     0
100
AcDbMText
 10
33.9148338136
 20
0.7935954031
 30
0.0
 40
0.238125
 41
0.0
 71
     1
 72
     1
  1
2
  7
SLDTEXTSTYLE0
 73
     1
 44
1.0
  0
MTEXT
  5
96
330
1F
100
AcDbEntity
  8
0
  6
Continuous
 62
     7
370
     0
100
AcDbMText
 10
28.9020766442
 20
0.7915127279
 30
0.0
 40
0.238125
 41
0.0
 71
     1
 72
     1
  1
3
  7
SLDTEXTSTYLE0
 73
     1
 44
1.0
  0
MTEXT
  5
97
330
1F
100
AcDbEntity
  8
0
  6
Continuous
 62
     7
370
     0
100
AcDbMText
 10
24.0541173263
 20
0.7968583297
 30
0.0
 40
0.238125
 41
0.0
 71
     1
 72
     1
  1
4
  7
SLDTEXTSTYLE0
 73
     1
 44
1.0
  0
MTEXT
  5
98
330
1F
100
AcDbEntity
  8
0
  6
Continuous
 62
     7
370
     0
100
AcDbMText
 10
19.012193511
 20
0.7888895188
 30
0.0
 40
0.238125
 41
0.0
 71
     1
 72
     1
  1
5
  7
SLDTEXTSTYLE0
 73
     1
 44
1.0
  0
MTEXT
  5
99
330
1F
100
AcDbEntity
  8
0
  6
Continuous
 62
     7
370
     0
100
AcDbMText
 10
14.017816106
 20
0.7966847627
 30
0.0
 40
0.238125
 41
0.0
 71
     1
 72
     1
  1
6
  7
SLDTEXTSTYLE0
 73
     1
 44
1.0
  0
MTEXT
  5
9A
330
1F
100
AcDbEntity
  8
0
  6
Continuous
 62
     7
370
     0
100
AcDbMText
 10
9.0358637554
 20
0.7956829786
 30
0.0
 40
0.238125
 41
0.0
 71
     1
 72
     1
  1
7
  7
SLDTEXTSTYLE0
 73
     1
 44
1.0
  0
MTEXT
  5
9B
330
1F
100
AcDbEntity
  8
0
  6
Continuous
 62
     7
370
     0
100
AcDbMText
 10
3.87800711
 20
0.7949253907
 30
0.0
 40
0.238125
 41
0.0
 71
     1
 72
     1
  1
8
  7
SLDTEXTSTYLE0
 73
     1
 44
1.0
  0
MTEXT
  5
9C
330
1F
100
AcDbEntity
  8
0
  6
Continuous
 62
     7
370
     0
100
AcDbMText
 10
3.8330857271
 20
27.5120055717
 30
0.0
 40
0.238125
 41
0.0
 71
     1
 72
     1
  1
8
  7
SLDTEXTSTYLE0
 73
     1
 44
1.0
  0
MTEXT
  5
9D
330
1F
100
AcDbEntity
  8
0
  6
Continuous
 62
     7
370
     0
100
AcDbMText
 10
9.0195070495
 20
27.5047895356
 30
0.0
 40
0.238125
 41
0.0
 71
     1
 72
     1
  1
7
  7
SLDTEXTSTYLE0
 73
     1
 44
1.0
  0
MTEXT
  5
9E
330
1F
100
AcDbEntity
  8
0
  6
Continuous
 62
     7
370
     0
100
AcDbMText
 10
13.9666667227
 20
27.5253412681
 30
0.0
 40
0.238125
 41
0.0
 71
     1
 72
     1
  1
6
  7
SLDTEXTSTYLE0
 73
     1
 44
1.0
  0
MTEXT
  5
9F
330
1F
100
AcDbEntity
  8
0
  6
Continuous
 62
     7
370
     0
100
AcDbMText
 10
18.9958844921
 20
27.5267041239
 30
0.0
 40
0.238125
 41
0.0
 71
     1
 72
     1
  1
5
  7
SLDTEXTSTYLE0
 73
     1
 44
1.0
  0
MTEXT
  5
A0
330
1F
100
AcDbEntity
  8
0
  6
Continuous
 62
     7
370
     0
100
AcDbMText
 10
24.0393187614
 20
27.522565592
 30
0.0
 40
0.238125
 41
0.0
 71
     1
 72
     1
  1
4
  7
SLDTEXTSTYLE0
 73
     1
 44
1.0
  0
MTEXT
  5
A1
330
1F
100
AcDbEntity
  8
0
  6
Continuous
 62
     7
370
     0
100
AcDbMText
 10
29.0391293868
 20
27.5069865502
 30
0.0
 40
0.238125
 41
0.0
 71
     1
 72
     1
  1
3
  7
SLDTEXTSTYLE0
 73
     1
 44
1.0
  0
MTEXT
  5
A2
330
1F
100
AcDbEntity
  8
0
  6
Continuous
 62
     7
370
     0
100
AcDbMText
 10
34.0385272595
 20
27.5239534301
 30
0.0
 40
0.238125
 41
0.0
 71
     1
 72
     1
  1
2
  7
SLDTEXTSTYLE0
 73
     1
 44
1.0
  0
MTEXT
  5
A3
330
1F
100
AcDbEntity
  8
0
  6
Continuous
 62
     7
370
     0
100
AcDbMText
 10
39.1855883814
 20
27.5083743882
 30
0.0
 40
0.238125
 41
0.0
 71
     1
 72
     1
  1
1
  7
SLDTEXTSTYLE0
 73
     1
 44
1.0
  0
MTEXT
  5
A4
330
1F
100
AcDbEntity
  8
0
  6
Continuous
 62
     7
370
     0
100
AcDbMText
 10
26.8336996203
 20
2.8011672671
 30
0.0
 40
0.1524
 41
0.0
 71
     1
 72
     1
  1
MATERIAL
  7
SLDTEXTSTYLE0
 73
     1
 44
1.0
  0
MTEXT
  5
A5
330
1F
100
AcDbEntity
  8
0
  6
Continuous
 62
     7
370
     0
100
AcDbMText
 10
26.8406491445
 20
2.1196890169
 30
0.0
 40
0.1524
 41
0.0
 71
     1
 72
     1
  1
FINISH
  7
SLDTEXTSTYLE0
 73
     1
 44
1.0
  0
MTEXT
  5
A6
330
1F
100
AcDbEntity
  8
0
  6
Continuous
 62
     7
370
     0
100
AcDbMText
 10
32.1665748633
 20
6.6256774767
 30
0.0
 40
0.254
 41
0.0
 71
     1
 72
     1
  1
TITLE:
  7
SLDTEXTSTYLE0
 73
     1
 44
1.0
  0
MTEXT
  5
A7
330
1F
100
AcDbEntity
  8
0
  6
Continuous
 62
     7
370
     0
100
AcDbMText
 10
32.3629929514
 20
2.7995246259
 30
0.0
 40
0.254
 41
0.0
 71
     1
 72
     1
  1
SIZE
  7
SLDTEXTSTYLE0
 73
     1
 44
1.0
  0
MTEXT
  5
A8
330
1F
100
AcDbEntity
  8
0
  6
Continuous
 62
     7
370
     0
100
AcDbMText
 10
32.4816292119
 20
2.378960904
 30
0.0
 40
0.635
 41
0.0
 71
     1
 72
     1
  1
B
  7
SLDTEXTSTYLE0
 73
     1
 44
1.0
  0
MTEXT
  5
AA
330
1F
100
AcDbEntity
  8
0
  6
Continuous
 62
     7
370
     0
100
AcDbMText
 10
33.623403285
 20
2.6480022823
 30
0.0
 40
0.254
 41
0.0
 71
     1
 72
     1
  1
DWG.  NO.
  7
SLDTEXTSTYLE1
 73
     1
 44
1.0
  0
MTEXT
  5
AB
330
1F
100
AcDbEntity
  8
0
  6
Continuous
 62
     7
370
     0
100
AcDbMText
 10
40.5741700655
 20
2.7481943993
 30
0.0
 40
0.254
 41
0.0
 71
     1
 72
     1
  1
REV
  7
SLDTEXTSTYLE0
 73
     1
 44
1.0
  0
MTEXT
  5
AC
330
1F
100
AcDbEntity
  8
0
  6
Continuous
 62
     7
370
     0
100
AcDbMText
 10
32.1412305116
 20
1.3035554055
 30
0.0
 40
0.254
 41
0.0
 71
     1
 72
     1
  1
SCALE: 2:1
  7
SLDTEXTSTYLE0
 73
     1
 44
1.0
  0
MTEXT
  5
AE
330
1F
100
AcDbEntity
  8
0
  6
Continuous
 62
     7
370
     0
100
AcDbMText
 10
39.3787692305
 20
1.4031568412
 30
0.0
 40
0.254
 41
0.0
 71
     1
 72
     1
  1
SHEET 1 OF 1
  7
SLDTEXTSTYLE2
 73
     1
 44
1.0
  0
INSERT
  5
B7
330
1F
100
AcDbEntity
  8
0
  6
Continuous
 62
     7
370
     0
100
AcDbBlockReference
  2
SW_NOTE_2
 10
27.2062411605
 20
5.2498171618
 30
0.0
  0
MTEXT
  5
B8
330
1F
100
AcDbEntity
  8
0
  6
Continuous
 62
     7
370
     0
100
AcDbMText
 10
27.3597760064
 20
6.149899918
 30
0.0
 40
0.1778
 41
0.0
 71
     1
 72
     1
  1
UNLESS OTHERWISE SPECIFIED:
  7
SLDTEXTSTYLE0
 73
     1
 44
1.0
  0
MTEXT
  5
B9
330
1F
100
AcDbEntity
  8
0
  6
Continuous
 62
     7
370
     0
100
AcDbMText
 10
36.9921262658
 20
1.4209501828
 30
0.0
 40
0.3175
 41
0.0
 71
     1
 72
     1
  1
5/21/2012
  7
SLDTEXTSTYLE0
 73
     1
 44
1.0
  0
INSERT
  5
C0
330
1F
100
AcDbEntity
  8
0
  6
Continuous
 62
     7
370
     0
100
AcDbBlockReference
  2
SW_NOTE_3
 10
32.3629929514
 20
4.4913643931
 30
0.0
  0
CIRCLE
  5
C1
330
1F
100
AcDbEntity
  8
0
  6
Continuous
 62
     7
370
    15
100
AcDbCircle
 10
13.0235312118
 20
18.0394406441
 30
0.0
 40
0.2399999999999984
  0
CIRCLE
  5
C2
330
1F
100
AcDbEntity
  8
0
  6
Continuous
 62
     7
370
    15
100
AcDbCircle
 10
18.8835343373
 20
13.1261464469
 30
0.0
 40
0.2399999999999984
  0
CIRCLE
  5
C3
330
1F
100
AcDbEntity
  8
0
  6
Continuous
 62
     7
370
    15
100
AcDbCircle
 10
15.7240629131
 20
16.9091087118
 30
0.0
 40
0.0700000000000003
  0
CIRCLE
  5
C4
330
1F
100
AcDbEntity
  8
0
  6
Continuous
 62
     7
370
    15
100
AcDbCircle
 10
15.0298489305
 20
16.7506589004
 30
0.0
 40
0.0700000000000003
  0
CIRCLE
  5
C5
330
1F
100
AcDbEntity
  8
0
  6
Continuous
 62
     7
370
    15
100
AcDbCircle
 10
14.4731325411
 20
16.3066923948
 30
0.0
 40
0.0700000000000003
  0
CIRCLE
  5
C6
330
1F
100
AcDbEntity
  8
0
  6
Continuous
 62
     7
370
    15
100
AcDbCircle
 10
14.1641782536
 20
15.6651422061
 30
0.0
 40
0.0700000000000003
  0
CIRCLE
  5
C7
330
1F
100
AcDbEntity
  8
0
  6
Continuous
 62
     7
370
    15
100
AcDbCircle
 10
14.1641782536
 20
14.9530752175
 30
0.0
 40
0.0699999999999967
  0
CIRCLE
  5
C8
330
1F
100
AcDbEntity
  8
0
  6
Continuous
 62
     7
370
    15
100
AcDbCircle
 10
14.4731325411
 20
14.3115250288
 30
0.0
 40
0.0699999999999967
  0
CIRCLE
  5
C9
330
1F
100
AcDbEntity
  8
0
  6
Continuous
 62
     7
370
    15
100
AcDbCircle
 10
15.0298489305
 20
13.8675585232
 30
0.0
 40
0.0700000000000003
  0
CIRCLE
  5
CA
330
1F
100
AcDbEntity
  8
0
  6
Continuous
 62
     7
370
    15
100
AcDbCircle
 10
15.7240629131
 20
13.7091087118
 30
0.0
 40
0.0699999999999985
  0
CIRCLE
  5
CB
330
1F
100
AcDbEntity
  8
0
  6
Continuous
 62
     7
370
    15
100
AcDbCircle
 10
16.4182768957
 20
13.8675585232
 30
0.0
 40
0.0700000000000021
  0
CIRCLE
  5
CC
330
1F
100
AcDbEntity
  8
0
  6
Continuous
 62
     7
370
    15
100
AcDbCircle
 10
16.974993285
 20
14.3115250288
 30
0.0
 40
0.0700000000000003
  0
CIRCLE
  5
CD
330
1F
100
AcDbEntity
  8
0
  6
Continuous
 62
     7
370
    15
100
AcDbCircle
 10
17.2839475726
 20
14.9530752175
 30
0.0
 40
0.0700000000000003
  0
CIRCLE
  5
CE
330
1F
100
AcDbEntity
  8
0
  6
Continuous
 62
     7
370
    15
100
AcDbCircle
 10
17.2839475726
 20
15.6651422061
 30
0.0
 40
0.0700000000000003
  0
CIRCLE
  5
CF
330
1F
100
AcDbEntity
  8
0
  6
Continuous
 62
     7
370
    15
100
AcDbCircle
 10
16.974993285
 20
16.3066923948
 30
0.0
 40
0.0700000000000003
  0
CIRCLE
  5
D0
330
1F
100
AcDbEntity
  8
0
  6
Continuous
 62
     7
370
    15
100
AcDbCircle
 10
16.4182768957
 20
16.7506589004
 30
0.0
 40
0.0700000000000003
  0
ARC
  5
D1
330
1F
100
AcDbEntity
  8
0
  6
Continuous
 62
     7
370
    15
100
AcDbCircle
 10
10.6905119425
 20
9.3056773608
 30
0.0
 40
6.599999999999999
100
AcDbArc
 50
14.3540002423
 51
35.0
  0
LINE
  5
D2
330
1F
100
AcDbEntity
  8
0
  6
Continuous
 62
     7
370
    15
100
AcDbLine
 10
16.0969154348
 20
13.0912818407
 30
0.0
 11
15.2777633905
 21
12.5177054044
 31
0.0
  0
ARC
  5
D3
330
1F
100
AcDbEntity
  8
0
  6
Continuous
 62
     7
370
    15
100
AcDbCircle
 10
10.6905119425
 20
9.3056773608
 30
0.0
 40
5.599999999999999
100
AcDbArc
 50
35.0
 51
65.0439904084
  0
LINE
  5
D4
330
1F
100
AcDbEntity
  8
0
  6
Continuous
 62
     7
370
    15
100
AcDbLine
 10
13.0532767919
 20
14.3828165421
 30
0.0
 11
13.4751990865
 21
15.2894485387
 31
0.0
  0
ARC
  5
D5
330
1F
100
AcDbEntity
  8
0
  6
Continuous
 62
     7
370
    15
100
AcDbCircle
 10
10.6905119425
 20
9.3056773608
 30
0.0
 40
6.599999999999999
100
AcDbArc
 50
65.0439904084
 51
86.4138287922
  0
LINE
  5
D6
330
1F
100
AcDbEntity
  8
0
  6
Continuous
 62
     7
370
    15
100
AcDbLine
 10
11.1033395401
 20
15.8927535995
 30
0.0
 11
11.4098327566
 21
20.7831586858
 31
0.0
  0
ARC
  5
D7
330
1F
100
AcDbEntity
  8
0
  6
Continuous
 62
     7
370
    15
100
AcDbCircle
 10
10.6905119425
 20
9.3056773608
 30
0.0
 40
11.5
100
AcDbArc
 50
14.3540002423
 51
86.4138287922
  0
LINE
  5
D8
330
1F
100
AcDbEntity
  8
0
  6
Continuous
 62
     7
370
    15
100
AcDbLine
 10
17.0844765014
 20
10.9418977673
 30
0.0
 11
21.8315107952
 21
12.1566674629
 31
0.0
  0
LINE
  5
D9
330
1F
100
AcDbEntity
  8
0
  6
CENTERX2
 62
     7
370
     0
100
AcDbLine
 10
18.8835343373
 20
13.1261464469
 30
0.0
 11
10.6905119425
 21
9.3056773608
 31
0.0
  0
LINE
  5
DA
330
1F
100
AcDbEntity
  8
0
  6
CENTERX2
 62
     7
370
     0
100
AcDbLine
 10
10.6905119425
 20
9.3056773608
 30
0.0
 11
13.0235312118
 21
18.0394406441
 31
0.0
  0
LINE
  5
DB
330
1F
100
AcDbEntity
  8
0
  6
CENTERX2
 62
     7
370
     0
100
AcDbLine
 10
14.4731325411
 20
16.3066923948
 30
0.0
 11
15.7240629131
 21
15.3091087118
 31
0.0
  0
LINE
  5
DC
330
1F
100
AcDbEntity
  8
0
  6
CENTERX2
 62
     7
370
     0
100
AcDbLine
 10
15.7240629131
 20
15.3091087118
 30
0.0
 11
14.1641782536
 21
15.6651422061
 31
0.0
  0
CIRCLE
  5
DD
330
1F
100
AcDbEntity
  8
0
  6
Continuous
 62
     7
370
     0
100
AcDbCircle
 10
13.0235312118
 20
18.0394406441
 30
0.0
 40
0.4999999999999988
  0
CIRCLE
  5
DE
330
1F
100
AcDbEntity
  8
0
  6
Continuous
 62
     7
370
     0
100
AcDbCircle
 10
18.8835343373
 20
13.1261464469
 30
0.0
 40
0.5000000000000017
  0
DIMENSION
  5
DF
330
1F
100
AcDbEntity
  8
0
  6
Continuous
 62
     7
370
     0
100
AcDbDimension
  2
*D5
 10
13.0235312118
 20
18.0394406441
 30
0.0
 11
20.0554422162
 21
20.1013725218
 31
0.0
 70
   162
 71
     1
 42
-1.0
  3
SLDDIMSTYLE0
100
AcDb2LineAngularDimension
 13
18.8835343373
 23
13.1261464469
 33
0.0
 14
10.6905119425
 24
9.3056773608
 34
0.0
 15
10.6905119425
 25
9.3056773608
 35
0.0
 16
22.2128803122
 26
17.7604972994
 36
0.0
  0
DIMENSION
  5
EB
330
1F
100
AcDbEntity
  8
0
  6
Continuous
 62
     7
370
     0
100
AcDbDimension
  2
*D6
 10
11.5155836384
 20
7.536305399
 30
0.0
 11
16.6518469172
 21
9.9313843002
 31
0.0
 70
   160
 71
     2
 42
-1.0
  3
SLDDIMSTYLE1
100
AcDbAlignedDimension
 13
18.8835343373
 23
13.1261464469
 33
0.0
 14
10.6905119425
 24
9.3056773608
 34
0.0
 50
25.0
100
AcDbRotatedDimension
  0
DIMENSION
  5
F7
330
1F
100
AcDbEntity
  8
0
  6
Continuous
 62
     7
370
     0
100
AcDbDimension
  2
*D7
 10
14.1641782536
 20
15.6651422061
 30
0.0
 11
8.7105718304
 21
18.3571180297
 31
0.0
 70
   162
 71
     1
 42
-1.0
  3
SLDDIMSTYLE0
100
AcDb2LineAngularDimension
 13
14.4731325411
 23
16.3066923948
 33
0.0
 14
15.7240629131
 24
15.3091087118
 34
0.0
 15
15.7240629131
 25
15.3091087118
 35
0.0
 16
9.2437123872
 26
19.3692164729
 36
0.0
  0
DIMENSION
  5
102
330
1F
100
AcDbEntity
  8
0
  6
Continuous
 62
     7
370
     0
100
AcDbDimension
  2
*D8
 10
9.2190308613
 20
14.3091087118
 30
0.0
 11
9.2190308613
 21
15.1707730847
 31
0.0
 70
   160
  1
%%c<>
 71
     2
 42
-1.0
  3
SLDDIMSTYLE2
100
AcDbAlignedDimension
 13
15.7240629131
 23
16.3091087118
 33
0.0
 14
15.7240629131
 24
14.3091087118
 34
0.0
 50
90.0
100
AcDbRotatedDimension
  0
DIMENSION
  5
10F
330
1F
100
AcDbEntity
  8
0
  6
Continuous
 62
     7
370
     0
100
AcDbDimension
  2
*D9
 10
10.6905119425
 20
9.3056773608
 30
0.0
 11
12.9945375367
 21
11.4214006403
 31
0.0
 70
   164
  1
<>
 71
     1
 42
-1.0
  3
SLDDIMSTYLE3
100
AcDbRadialDimension
 15
14.8152743447
 25
13.0933329847
 35
0.0
 40
0.0
  0
DIMENSION
  5
118
330
1F
100
AcDbEntity
  8
0
  6
Continuous
 62
     7
370
     0
100
AcDbDimension
  2
*D10
 10
10.6905119425
 20
9.3056773608
 30
0.0
 11
12.5881697167
 21
12.6134129125
 31
0.0
 70
   164
  1
<>
 71
     1
 42
-1.0
  3
SLDDIMSTYLE3
100
AcDbRadialDimension
 15
13.9748390757
 25
15.0304651544
 35
0.0
 40
0.0
  0
DIMENSION
  5
121
330
1F
100
AcDbEntity
  8
0
  6
Continuous
 62
     7
370
     0
100
AcDbDimension
  2
*D11
 10
10.6905119425
 20
9.3056773608
 30
0.0
 11
10.6917865564
 21
13.3990573646
 31
0.0
 70
   164
  1
<>
 71
     1
 42
-1.0
  3
SLDDIMSTYLE3
100
AcDbRadialDimension
 15
10.6940900524
 25
20.8056768042
 35
0.0
 40
0.0
  0
DIMENSION
  5
12A
330
1F
100
AcDbEntity
  8
0
  6
Continuous
 62
     7
370
     0
100
AcDbDimension
  2
*D12
 10
18.6457568749
 20
13.1587329222
 30
0.0
 11
24.1561059941
 21
12.6134119125
 31
0.0
 70
   163
  1
<>
 71
     1
 42
-1.0
  3
SLDDIMSTYLE4
100
AcDbDiametricDimension
 15
19.1213117997
 25
13.0935599717
 35
0.0
 40
0.0
  0
DIMENSION
  5
134
330
1F
100
AcDbEntity
  8
0
  6
Continuous
 62
     7
370
     0
100
AcDbDimension
  2
*D13
 10
13.4751990865
 20
15.2894485387
 30
0.0
 11
18.8233092993
 21
19.4426727284
 31
0.0
 70
   162
 71
     1
 42
-1.0
  3
SLDDIMSTYLE0
100
AcDb2LineAngularDimension
 13
16.0969154348
 23
13.0912818407
 33
0.0
 14
15.2777633905
 24
12.5177054044
 34
0.0
 15
13.0532767919
 25
14.3828165421
 35
0.0
 16
20.3091864311
 26
18.045366658
 36
0.0
  0
DIMENSION
  5
13F
330
1F
100
AcDbEntity
  8
0
  6
Continuous
 62
     7
370
     0
100
AcDbDimension
  2
*D14
 10
17.0844765014
 20
10.9418977673
 30
0.0
 11
20.9371507034
 21
21.7831586858
 31
0.0
 70
   162
 71
     1
 42
-1.0
  3
SLDDIMSTYLE0
100
AcDb2LineAngularDimension
 13
11.4098327566
 23
20.7831586858
 33
0.0
 14
11.1033395401
 24
15.8927535995
 34
0.0
 15
21.8315107952
 25
12.1566674629
 35
0.0
 16
24.4146395224
 26
17.8103506811
 36
0.0
  0
DIMENSION
  5
14A
330
1F
100
AcDbEntity
  8
0
  6
Continuous
 62
     7
370
     0
100
AcDbDimension
  2
*D15
 10
15.0904462223
 20
16.7156165228
 30
0.0
 11
6.2644665815
 21
20.9340380337
 31
0.0
 70
   163
  1
<>
 71
     1
 42
-1.0
  3
SLDDIMSTYLE4
100
AcDbDiametricDimension
 15
14.9692516387
 25
16.7857012781
 35
0.0
 40
0.0
  0
LINE
  5
153
330
1F
100
AcDbEntity
  8
0
  6
Continuous
 62
     7
370
    15
100
AcDbLine
 10
21.8315107952
 20
4.1920895065
 30
0.0
 11
21.8315107952
 21
4.5320895065
 31
0.0
  0
LINE
  5
154
330
1F
100
AcDbEntity
  8
0
  6
Continuous
 62
     7
370
    15
100
AcDbLine
 10
21.8315107952
 20
4.1920895065
 30
0.0
 11
11.4098327566
 21
4.1920895065
 31
0.0
  0
LINE
  5
155
330
1F
100
AcDbEntity
  8
0
  6
Continuous
 62
     7
370
    15
100
AcDbLine
 10
11.4098327566
 20
4.1920895065
 30
0.0
 11
11.4098327566
 21
4.5320895065
 31
0.0
  0
LINE
  5
156
330
1F
100
AcDbEntity
  8
0
  6
Continuous
 62
     7
370
    15
100
AcDbLine
 10
21.8315107952
 20
4.5320895065
 30
0.0
 11
11.4098327566
 21
4.5320895065
 31
0.0
  0
LINE
  5
157
330
1F
100
AcDbEntity
  8
0
  6
Continuous
 62
     7
370
    15
100
AcDbLine
 10
11.1033395401
 20
4.1920895065
 30
0.0
 11
11.4098327566
 21
4.1920895065
 31
0.0
  0
LINE
  5
158
330
1F
100
AcDbEntity
  8
0
  6
Continuous
 62
     7
370
    15
100
AcDbLine
 10
11.1033395401
 20
4.1920895065
 30
0.0
 11
11.1033395401
 21
4.5320895065
 31
0.0
  0
LINE
  5
159
330
1F
100
AcDbEntity
  8
0
  6
Continuous
 62
     7
370
    15
100
AcDbLine
 10
11.1033395401
 20
4.5320895065
 30
0.0
 11
11.4098327566
 21
4.5320895065
 31
0.0
  0
DIMENSION
  5
15A
330
1F
100
AcDbEntity
  8
0
  6
Continuous
 62
     7
370
     0
100
AcDbDimension
  2
*D16
 10
25.9038203812
 20
4.5320895065
 30
0.0
 11
25.9038203812
 21
5.252709394
 31
0.0
 70
   160
 71
     2
 42
-1.0
  3
SLDDIMSTYLE5
100
AcDbAlignedDimension
 13
21.8315107952
 23
4.1920895065
 33
0.0
 14
21.8315107952
 24
4.5320895065
 34
0.0
 50
90.0
100
AcDbRotatedDimension
  0
ENDSEC
  0
SECTION
  2
OBJECTS
  0
DICTIONARY
  5
C
330
0
100
AcDbDictionary
281
     1
  3
ACAD_GROUP
350
D
  3
ACAD_LAYOUT
350
1A
  3
ACAD_MLINESTYLE
350
17
  3
ACAD_PLOTSETTINGS
350
19
  3
ACAD_PLOTSTYLENAME
350
E
  0
DICTIONARY
  5
D
102
{ACAD_REACTORS
330
C
102
}
330
C
100
AcDbDictionary
281
     1
  0
DICTIONARY
  5
1A
102
{ACAD_REACTORS
330
C
102
}
330
C
100
AcDbDictionary
281
     1
  3
Layout1
350
1E
  3
Layout2
350
26
  3
Model
350
22
  0
DICTIONARY
  5
17
102
{ACAD_REACTORS
330
C
102
}
330
C
100
AcDbDictionary
281
     1
  3
Standard
350
18
  0
DICTIONARY
  5
19
102
{ACAD_REACTORS
330
C
102
}
330
C
100
AcDbDictionary
281
     1
  0
ACDBDICTIONARYWDFLT
  5
E
102
{ACAD_REACTORS
330
C
102
}
330
C
100
AcDbDictionary
281
     1
  3
Normal
350
F
100
AcDbDictionaryWithDefault
340
F
  0
LAYOUT
  5
1E
102
{ACAD_REACTORS
330
1A
102
}
330
1A
100
AcDbPlotSettings
  1

  2
none_device
  4

  6

 40
0.0
 41
0.0
 42
0.0
 43
0.0
 44
0.0
 45
0.0
 46
0.0
 47
0.0
 48
0.0
 49
0.0
140
0.0
141
0.0
142
1.0
143
1.0
 70
   688
 72
     0
 73
     0
 74
     5
  7

 75
    16
147
1.0
148
0.0
149
0.0
100
AcDbLayout
  1
Layout1
 70
     1
 71
     1
 10
0.0
 20
0.0
 11
420.0
 21
297.0
 12
0.0
 22
0.0
 32
0.0
 14
1.0000000000E+20
 24
1.0000000000E+20
 34
1.0000000000E+20
 15
-1.0000000000E+20
 25
-1.0000000000E+20
 35
-1.0000000000E+20
146
0.0
 13
0.0
 23
0.0
 33
0.0
 16
1.0
 26
0.0
 36
0.0
 17
0.0
 27
1.0
 37
0.0
 76
     0
330
1B
  0
LAYOUT
  5
26
102
{ACAD_REACTORS
330
1A
102
}
330
1A
100
AcDbPlotSettings
  1

  2
none_device
  4

  6

 40
0.0
 41
0.0
 42
0.0
 43
0.0
 44
0.0
 45
0.0
 46
0.0
 47
0.0
 48
0.0
 49
0.0
140
0.0
141
0.0
142
1.0
143
1.0
 70
   688
 72
     0
 73
     0
 74
     5
  7

 75
    16
147
1.0
148
0.0
149
0.0
100
AcDbLayout
  1
Layout2
 70
     1
 71
     2
 10
0.0
 20
0.0
 11
0.0
 21
0.0
 12
0.0
 22
0.0
 32
0.0
 14
0.0
 24
0.0
 34
0.0
 15
0.0
 25
0.0
 35
0.0
146
0.0
 13
0.0
 23
0.0
 33
0.0
 16
1.0
 26
0.0
 36
0.0
 17
0.0
 27
1.0
 37
0.0
 76
     0
330
23
  0
LAYOUT
  5
22
102
{ACAD_REACTORS
330
1A
102
}
330
1A
100
AcDbPlotSettings
  1

  2
none_device
  4

  6

 40
0.0
 41
0.0
 42
0.0
 43
0.0
 44
0.0
 45
0.0
 46
0.0
 47
0.0
 48
0.0
 49
0.0
140
0.0
141
0.0
142
1.0
143
1.0
 70
  1712
 72
     0
 73
     0
 74
     0
  7

 75
     0
147
1.0
148
0.0
149
0.0
100
AcDbLayout
  1
Model
 70
     1
 71
     0
 10
0.0
 20
0.0
 11
43.18
 21
27.94
 12
0.0
 22
0.0
 32
0.0
 14
0.0
 24
0.0
 34
0.0
 15
43.18
 25
27.94
 35
0.0
146
0.0
 13
0.0
 23
0.0
 33
0.0
 16
1.0
 26
0.0
 36
0.0
 17
0.0
 27
1.0
 37
0.0
 76
     0
330
1F
331
29
  0
MLINESTYLE
  5
18
102
{ACAD_REACTORS
330
17
102
}
330
17
100
AcDbMlineStyle
  2
Standard
 70
     0
  3

 62
   256
 51
90.0
 52
90.0
 71
     2
 49
0.5
 62
   256
  6
BYLAYER
 49
-0.5
 62
   256
  6
BYLAYER
  0
ACDBPLACEHOLDER
  5
F
102
{ACAD_REACTORS
330
E
102
}
330
E
  0
ENDSEC
  0
EOF
